# MagicaVoxel @ Ephtracy

# group
o 

# material
mtllib scarf_dude.mtl
usemtl palette

# normals
vn -1 0 0
vn 1 0 0
vn 0 0 1
vn 0 0 -1
vn 0 -1 0
vn 0 1 0

# texcoords
vt 0.00195313 0.5
vt 0.00585938 0.5
vt 0.00976563 0.5
vt 0.0136719 0.5
vt 0.0175781 0.5
vt 0.0253906 0.5
vt 0.0292969 0.5
vt 0.0371094 0.5
vt 0.0644531 0.5

# verts
v -0.4 2.7 0.4
v -0.4 2.7 -0.4
v -0.4 3.4 0.4
v -0.4 3.4 -0.4
v -0.3 2.6 0.4
v -0.3 2.6 -0.4
v -0.3 2.7 0.4
v -0.3 2.7 -0.4
v -0.3 2.8 0.5
v -0.3 2.8 0.4
v -0.3 2.8 -0.4
v -0.3 2.8 -0.5
v -0.3 3.4 0.5
v -0.3 3.4 0.4
v -0.3 3.4 -0.4
v -0.3 3.4 -0.5
v -0.3 3.5 0.4
v -0.3 3.5 -0.4
v -0.2 1.1 0.4
v -0.2 1.1 -0.4
v -0.2 1.3 0.4
v -0.2 1.3 -0.4
v -0.2 2.4 0.4
v -0.2 2.4 -0.4
v -0.2 2.6 0.4
v -0.2 2.6 -0.4
v -0.1 0 0.3
v -0.1 0 0.1
v -0.1 0 -0.1
v -0.1 0 -0.3
v -0.1 0.2 0.3
v -0.1 0.2 0.1
v -0.1 0.2 -0.1
v -0.1 0.2 -0.3
v -0.1 0.3 0.3
v -0.1 0.3 0.1
v -0.1 0.3 -0.1
v -0.1 0.3 -0.3
v -0.1 1 0.1
v -0.1 1 -0.1
v -0.1 1.1 0.6
v -0.1 1.1 0.4
v -0.1 1.1 0.3
v -0.1 1.1 -0.3
v -0.1 1.1 -0.4
v -0.1 1.1 -0.6
v -0.1 1.3 0.6
v -0.1 1.3 0.4
v -0.1 1.3 -0.4
v -0.1 1.3 -0.6
v -0.1 2.3 0.6
v -0.1 2.3 0.5
v -0.1 2.3 -0.5
v -0.1 2.3 -0.6
v -0.1 2.4 0.5
v -0.1 2.4 0.4
v -0.1 2.4 -0.4
v -0.1 2.4 -0.5
v 0.1 3.5 -0.3
v 0.1 3.5 -0.4
v 0.1 3.6 -0.3
v 0.1 3.6 -0.4
v 0.2 3.5 -0.2
v 0.2 3.5 -0.3
v 0.2 3.6 -0.2
v 0.2 3.6 -0.3
v 0 2.8 0.5
v 0 2.8 0.4
v 0 2.8 -0.4
v 0 2.8 -0.5
v 0 2.9 0.5
v 0 2.9 0.4
v 0 2.9 -0.4
v 0 2.9 -0.5
v 0.1 0.2 0.3
v 0.1 0.2 0.1
v 0.1 0.2 -0.1
v 0.1 0.2 -0.3
v 0.1 0.3 0.3
v 0.1 0.3 0.1
v 0.1 0.3 -0.1
v 0.1 0.3 -0.3
v 0.1 1 0.1
v 0.1 1 -0.1
v 0.1 1.1 0.6
v 0.1 1.1 0.4
v 0.1 1.1 0.3
v 0.1 1.1 -0.3
v 0.1 1.1 -0.4
v 0.1 1.1 -0.6
v 0.1 1.3 0.6
v 0.1 1.3 0.4
v 0.1 1.3 -0.4
v 0.1 1.3 -0.6
v 0.1 2.3 0.6
v 0.1 2.3 0.5
v 0.1 2.3 -0.5
v 0.1 2.3 -0.6
v 0.1 2.4 0.5
v 0.1 2.4 0.4
v 0.1 2.4 -0.4
v 0.1 2.4 -0.5
v 0.1 2.9 0.5
v 0.1 2.9 0.4
v 0.1 2.9 -0.4
v 0.1 2.9 -0.5
v 0.1 3 0.5
v 0.1 3 0.4
v 0.1 3 -0.4
v 0.1 3 -0.5
v 0.2 0 0.3
v 0.2 0 0.1
v 0.2 0 -0.1
v 0.2 0 -0.3
v 0.2 0.2 0.3
v 0.2 0.2 0.1
v 0.2 0.2 -0.1
v 0.2 0.2 -0.3
v 0.2 1.1 0.4
v 0.2 1.1 -0.4
v 0.2 1.3 0.4
v 0.2 1.3 -0.4
v 0.2 2.1 0.4
v 0.2 2.1 0.2
v 0.2 2.4 0.3
v 0.2 2.4 0.2
v 0.2 2.4 -0.4
v 0.2 2.5 0.4
v 0.2 2.5 0.3
v 0.2 2.6 0.4
v 0.2 2.6 -0.4
v 0.2 3 0.5
v 0.2 3 0.4
v 0.2 3 -0.4
v 0.2 3 -0.5
v 0.2 3.3 0.5
v 0.2 3.3 0.4
v 0.2 3.3 -0.4
v 0.2 3.3 -0.5
v 0.2 3.5 -0.3
v 0.2 3.5 -0.4
v 0.2 3.6 -0.3
v 0.2 3.6 -0.4
v 0.3 2.1 0.4
v 0.3 2.1 0.2
v 0.3 2.4 0.3
v 0.3 2.4 0.2
v 0.3 2.5 0.4
v 0.3 2.5 0.3
v 0.3 2.6 0.4
v 0.3 2.6 -0.4
v 0.3 2.7 0.1
v 0.3 2.7 -0.1
v 0.3 2.8 0.3
v 0.3 2.8 0.2
v 0.3 2.8 -0.2
v 0.3 2.8 -0.3
v 0.3 3 0.4
v 0.3 3 0.3
v 0.3 3 0.2
v 0.3 3 0.1
v 0.3 3 -0.1
v 0.3 3 -0.2
v 0.3 3 -0.3
v 0.3 3.1 0.4
v 0.3 3.1 0.1
v 0.3 3.1 -0.1
v 0.3 3.1 -0.4
v 0.3 3.2 -0.1
v 0.3 3.2 -0.4
v 0.3 3.3 0.5
v 0.3 3.3 0.4
v 0.3 3.3 -0.4
v 0.3 3.3 -0.5
v 0.3 3.4 0.5
v 0.3 3.4 0.4
v 0.3 3.4 -0.1
v 0.3 3.4 -0.3
v 0.3 3.4 -0.4
v 0.3 3.4 -0.5
v 0.3 3.5 0.4
v 0.3 3.5 -0.1
v 0.3 3.5 -0.2
v 0.3 3.5 -0.3
v 0.3 3.5 -0.4
v 0.3 3.6 -0.2
v 0.3 3.6 -0.3
v 0.4 2.7 0.1
v 0.4 2.7 -0.1
v 0.4 3 0.4
v 0.4 3 0.1
v 0.4 3 -0.1
v 0.4 3.1 0.4
v 0.4 3.1 0.1
v 0.4 3.1 -0.1
v 0.4 3.1 -0.4
v 0.4 3.2 -0.1
v 0.4 3.2 -0.4
v 0.4 3.3 0.4
v 0.4 3.3 -0.4
v 0.4 3.4 0.4
v 0.4 3.4 -0.1
v 0.4 3.4 -0.3
v 0.4 3.4 -0.4
v 0.4 3.5 -0.1
v 0.4 3.5 -0.3
v -0.1 1.1 0.6
v -0.1 1.3 0.6
v -0.1 2.3 0.6
v 0.1 1.1 0.6
v 0.1 1.3 0.6
v 0.1 2.3 0.6
v -0.3 2.8 0.5
v -0.3 3.4 0.5
v -0.1 2.3 0.5
v -0.1 2.4 0.5
v 0 2.8 0.5
v 0 2.9 0.5
v 0.1 2.3 0.5
v 0.1 2.4 0.5
v 0.1 2.9 0.5
v 0.1 3 0.5
v 0.2 3 0.5
v 0.2 3.3 0.5
v 0.3 3.3 0.5
v 0.3 3.4 0.5
v -0.4 2.7 0.4
v -0.4 3.4 0.4
v -0.3 2.6 0.4
v -0.3 2.7 0.4
v -0.3 2.8 0.4
v -0.3 3.4 0.4
v -0.3 3.5 0.4
v -0.2 1.1 0.4
v -0.2 1.3 0.4
v -0.2 2.4 0.4
v -0.2 2.6 0.4
v -0.1 1.1 0.4
v -0.1 1.3 0.4
v -0.1 2.4 0.4
v 0 2.8 0.4
v 0 2.9 0.4
v 0.1 1.1 0.4
v 0.1 1.3 0.4
v 0.1 2.4 0.4
v 0.1 2.9 0.4
v 0.1 3 0.4
v 0.2 1.1 0.4
v 0.2 1.3 0.4
v 0.2 2.1 0.4
v 0.2 2.4 0.4
v 0.2 2.5 0.4
v 0.2 2.6 0.4
v 0.2 3 0.4
v 0.2 3.3 0.4
v 0.3 2.1 0.4
v 0.3 2.5 0.4
v 0.3 2.6 0.4
v 0.3 3 0.4
v 0.3 3.1 0.4
v 0.3 3.3 0.4
v 0.3 3.4 0.4
v 0.3 3.5 0.4
v 0.4 3 0.4
v 0.4 3.1 0.4
v 0.4 3.3 0.4
v 0.4 3.4 0.4
v -0.1 0 0.3
v -0.1 0.2 0.3
v -0.1 0.3 0.3
v -0.1 1.1 0.3
v 0.1 0.2 0.3
v 0.1 0.3 0.3
v 0.1 1.1 0.3
v 0.2 0 0.3
v 0.2 0.2 0.3
v 0.3 2.7 0.1
v 0.3 3 0.1
v 0.4 2.7 0.1
v 0.4 3 0.1
v -0.1 0 -0.1
v -0.1 0.2 -0.1
v -0.1 0.3 -0.1
v -0.1 1 -0.1
v 0.1 0.2 -0.1
v 0.1 0.3 -0.1
v 0.1 1 -0.1
v 0.2 0 -0.1
v 0.2 0.2 -0.1
v 0.3 3.1 -0.1
v 0.3 3.2 -0.1
v 0.3 3.4 -0.1
v 0.3 3.5 -0.1
v 0.4 3.1 -0.1
v 0.4 3.2 -0.1
v 0.4 3.4 -0.1
v 0.4 3.5 -0.1
v 0.2 3.5 -0.2
v 0.2 3.6 -0.2
v 0.3 3.5 -0.2
v 0.3 3.6 -0.2
v 0.1 3.5 -0.3
v 0.1 3.6 -0.3
v 0.2 3.5 -0.3
v 0.2 3.6 -0.3
v 0.2 2.4 0.3
v 0.2 2.5 0.3
v 0.3 2.4 0.3
v 0.3 2.5 0.3
v 0.2 2.1 0.2
v 0.2 2.4 0.2
v 0.3 2.1 0.2
v 0.3 2.4 0.2
v -0.1 0 0.1
v -0.1 0.2 0.1
v -0.1 0.3 0.1
v -0.1 1 0.1
v 0.1 0.2 0.1
v 0.1 0.3 0.1
v 0.1 1 0.1
v 0.2 0 0.1
v 0.2 0.2 0.1
v 0.3 3 0.1
v 0.3 3.1 0.1
v 0.4 3 0.1
v 0.4 3.1 0.1
v 0.3 2.7 -0.1
v 0.3 3 -0.1
v 0.4 2.7 -0.1
v 0.4 3 -0.1
v -0.1 0 -0.3
v -0.1 0.2 -0.3
v -0.1 0.3 -0.3
v -0.1 1.1 -0.3
v 0.1 0.2 -0.3
v 0.1 0.3 -0.3
v 0.1 1.1 -0.3
v 0.2 0 -0.3
v 0.2 0.2 -0.3
v 0.2 3.5 -0.3
v 0.2 3.6 -0.3
v 0.3 3.4 -0.3
v 0.3 3.5 -0.3
v 0.3 3.6 -0.3
v 0.4 3.4 -0.3
v 0.4 3.5 -0.3
v -0.4 2.7 -0.4
v -0.4 3.4 -0.4
v -0.3 2.6 -0.4
v -0.3 2.7 -0.4
v -0.3 2.8 -0.4
v -0.3 3.4 -0.4
v -0.3 3.5 -0.4
v -0.2 1.1 -0.4
v -0.2 1.3 -0.4
v -0.2 2.4 -0.4
v -0.2 2.6 -0.4
v -0.1 1.1 -0.4
v -0.1 1.3 -0.4
v -0.1 2.4 -0.4
v 0 2.8 -0.4
v 0 2.9 -0.4
v 0.1 1.1 -0.4
v 0.1 1.3 -0.4
v 0.1 2.4 -0.4
v 0.1 2.9 -0.4
v 0.1 3 -0.4
v 0.1 3.5 -0.4
v 0.1 3.6 -0.4
v 0.2 1.1 -0.4
v 0.2 1.3 -0.4
v 0.2 2.4 -0.4
v 0.2 2.6 -0.4
v 0.2 3 -0.4
v 0.2 3.3 -0.4
v 0.2 3.5 -0.4
v 0.2 3.6 -0.4
v 0.3 2.6 -0.4
v 0.3 3.1 -0.4
v 0.3 3.2 -0.4
v 0.3 3.3 -0.4
v 0.3 3.4 -0.4
v 0.3 3.5 -0.4
v 0.4 3.1 -0.4
v 0.4 3.2 -0.4
v 0.4 3.3 -0.4
v 0.4 3.4 -0.4
v -0.3 2.8 -0.5
v -0.3 3.4 -0.5
v -0.1 2.3 -0.5
v -0.1 2.4 -0.5
v 0 2.8 -0.5
v 0 2.9 -0.5
v 0.1 2.3 -0.5
v 0.1 2.4 -0.5
v 0.1 2.9 -0.5
v 0.1 3 -0.5
v 0.2 3 -0.5
v 0.2 3.3 -0.5
v 0.3 3.3 -0.5
v 0.3 3.4 -0.5
v -0.1 1.1 -0.6
v -0.1 1.3 -0.6
v -0.1 2.3 -0.6
v 0.1 1.1 -0.6
v 0.1 1.3 -0.6
v 0.1 2.3 -0.6
v -0.1 0 0.3
v 0.2 0 0.3
v -0.1 0 0.1
v 0.2 0 0.1
v -0.1 0 -0.1
v 0.2 0 -0.1
v -0.1 0 -0.3
v 0.2 0 -0.3
v -0.1 1 0.1
v 0.1 1 0.1
v -0.1 1 -0.1
v 0.1 1 -0.1
v -0.1 1.1 0.6
v 0.1 1.1 0.6
v -0.2 1.1 0.4
v -0.1 1.1 0.4
v 0.1 1.1 0.4
v 0.2 1.1 0.4
v -0.1 1.1 0.3
v 0.1 1.1 0.3
v -0.1 1.1 -0.3
v 0.1 1.1 -0.3
v -0.2 1.1 -0.4
v -0.1 1.1 -0.4
v 0.1 1.1 -0.4
v 0.2 1.1 -0.4
v -0.1 1.1 -0.6
v 0.1 1.1 -0.6
v 0.2 2.1 0.4
v 0.3 2.1 0.4
v 0.2 2.1 0.2
v 0.3 2.1 0.2
v -0.3 2.6 0.4
v -0.2 2.6 0.4
v 0.2 2.6 0.4
v 0.3 2.6 0.4
v -0.3 2.6 -0.4
v -0.2 2.6 -0.4
v 0.2 2.6 -0.4
v 0.3 2.6 -0.4
v -0.4 2.7 0.4
v -0.3 2.7 0.4
v 0.3 2.7 0.1
v 0.4 2.7 0.1
v 0.3 2.7 -0.1
v 0.4 2.7 -0.1
v -0.4 2.7 -0.4
v -0.3 2.7 -0.4
v -0.3 2.8 0.5
v 0 2.8 0.5
v -0.3 2.8 0.4
v 0 2.8 0.4
v -0.3 2.8 -0.4
v 0 2.8 -0.4
v -0.3 2.8 -0.5
v 0 2.8 -0.5
v 0 2.9 0.5
v 0.1 2.9 0.5
v 0 2.9 0.4
v 0.1 2.9 0.4
v 0 2.9 -0.4
v 0.1 2.9 -0.4
v 0 2.9 -0.5
v 0.1 2.9 -0.5
v 0.1 3 0.5
v 0.2 3 0.5
v 0.1 3 0.4
v 0.2 3 0.4
v 0.3 3 0.4
v 0.4 3 0.4
v 0.3 3 0.3
v 0.3 3 0.2
v 0.3 3 0.1
v 0.4 3 0.1
v 0.1 3 -0.4
v 0.2 3 -0.4
v 0.1 3 -0.5
v 0.2 3 -0.5
v 0.3 3.1 -0.1
v 0.4 3.1 -0.1
v 0.3 3.1 -0.4
v 0.4 3.1 -0.4
v 0.2 3.3 0.5
v 0.3 3.3 0.5
v 0.2 3.3 0.4
v 0.3 3.3 0.4
v 0.4 3.3 0.4
v 0.2 3.3 -0.4
v 0.3 3.3 -0.4
v 0.4 3.3 -0.4
v 0.2 3.3 -0.5
v 0.3 3.3 -0.5
v 0.1 0.2 0.3
v 0.2 0.2 0.3
v 0.1 0.2 0.1
v 0.2 0.2 0.1
v 0.1 0.2 -0.1
v 0.2 0.2 -0.1
v 0.1 0.2 -0.3
v 0.2 0.2 -0.3
v -0.1 2.3 0.6
v 0.1 2.3 0.6
v -0.1 2.3 0.5
v 0.1 2.3 0.5
v -0.1 2.3 -0.5
v 0.1 2.3 -0.5
v -0.1 2.3 -0.6
v 0.1 2.3 -0.6
v -0.1 2.4 0.5
v 0.1 2.4 0.5
v -0.1 2.4 0.4
v 0.1 2.4 0.4
v 0.2 2.4 0.3
v 0.3 2.4 0.3
v 0.2 2.4 0.2
v 0.3 2.4 0.2
v -0.1 2.4 -0.4
v 0.1 2.4 -0.4
v -0.1 2.4 -0.5
v 0.1 2.4 -0.5
v 0.2 2.5 0.4
v 0.3 2.5 0.4
v 0.2 2.5 0.3
v 0.3 2.5 0.3
v 0.3 3 0.1
v 0.4 3 0.1
v 0.3 3 -0.1
v 0.4 3 -0.1
v 0.3 3.1 0.4
v 0.4 3.1 0.4
v 0.3 3.1 0.1
v 0.4 3.1 0.1
v 0.3 3.2 -0.1
v 0.4 3.2 -0.1
v 0.3 3.2 -0.4
v 0.4 3.2 -0.4
v -0.3 3.4 0.5
v 0.3 3.4 0.5
v -0.4 3.4 0.4
v -0.3 3.4 0.4
v 0.3 3.4 0.4
v 0.4 3.4 0.4
v 0.3 3.4 -0.1
v 0.4 3.4 -0.1
v 0.3 3.4 -0.3
v 0.4 3.4 -0.3
v -0.4 3.4 -0.4
v -0.3 3.4 -0.4
v 0.3 3.4 -0.4
v 0.4 3.4 -0.4
v -0.3 3.4 -0.5
v 0.3 3.4 -0.5
v -0.3 3.5 0.4
v 0.3 3.5 0.4
v 0.3 3.5 -0.1
v 0.4 3.5 -0.1
v 0.2 3.5 -0.2
v 0.3 3.5 -0.2
v 0.1 3.5 -0.3
v 0.2 3.5 -0.3
v 0.3 3.5 -0.3
v 0.4 3.5 -0.3
v -0.3 3.5 -0.4
v 0.1 3.5 -0.4
v 0.2 3.5 -0.4
v 0.3 3.5 -0.4
v 0.2 3.6 -0.2
v 0.3 3.6 -0.2
v 0.1 3.6 -0.3
v 0.2 3.6 -0.3
v 0.3 3.6 -0.3
v 0.1 3.6 -0.4
v 0.2 3.6 -0.4

# faces
f 3/8/1 2/8/1 1/8/1
f 4/8/1 2/8/1 3/8/1
f 7/6/1 6/6/1 5/6/1
f 8/6/1 6/6/1 7/6/1
f 13/8/1 10/8/1 9/8/1
f 14/8/1 10/8/1 13/8/1
f 15/8/1 12/8/1 11/8/1
f 16/8/1 12/8/1 15/8/1
f 17/8/1 15/8/1 14/8/1
f 18/8/1 15/8/1 17/8/1
f 21/2/1 20/2/1 19/2/1
f 22/2/1 20/2/1 21/2/1
f 23/7/1 22/7/1 21/7/1
f 24/7/1 22/7/1 23/7/1
f 25/1/1 24/1/1 23/1/1
f 26/1/1 24/1/1 25/1/1
f 31/5/1 28/5/1 27/5/1
f 32/5/1 28/5/1 31/5/1
f 33/5/1 30/5/1 29/5/1
f 34/5/1 30/5/1 33/5/1
f 35/7/1 32/7/1 31/7/1
f 36/7/1 32/7/1 35/7/1
f 37/7/1 34/7/1 33/7/1
f 38/7/1 34/7/1 37/7/1
f 39/2/1 36/2/1 35/2/1
f 40/2/1 38/2/1 37/2/1
f 43/2/1 39/2/1 35/2/1
f 43/2/1 40/2/1 39/2/1
f 44/2/1 38/2/1 40/2/1
f 44/2/1 40/2/1 43/2/1
f 47/6/1 42/6/1 41/6/1
f 48/6/1 42/6/1 47/6/1
f 49/6/1 46/6/1 45/6/1
f 50/6/1 46/6/1 49/6/1
f 51/7/1 48/7/1 47/7/1
f 52/7/1 48/7/1 51/7/1
f 53/7/1 50/7/1 49/7/1
f 54/7/1 50/7/1 53/7/1
f 55/7/1 48/7/1 52/7/1
f 56/7/1 48/7/1 55/7/1
f 57/7/1 53/7/1 49/7/1
f 58/7/1 53/7/1 57/7/1
f 61/8/1 60/8/1 59/8/1
f 62/8/1 60/8/1 61/8/1
f 65/8/1 64/8/1 63/8/1
f 66/8/1 64/8/1 65/8/1
f 67/8/2 68/8/2 71/8/2
f 71/8/2 68/8/2 72/8/2
f 69/8/2 70/8/2 73/8/2
f 73/8/2 70/8/2 74/8/2
f 75/7/2 76/7/2 79/7/2
f 79/7/2 76/7/2 80/7/2
f 77/7/2 78/7/2 81/7/2
f 81/7/2 78/7/2 82/7/2
f 79/2/2 80/2/2 83/2/2
f 81/2/2 82/2/2 84/2/2
f 79/2/2 83/2/2 87/2/2
f 83/2/2 84/2/2 87/2/2
f 84/2/2 82/2/2 88/2/2
f 87/2/2 84/2/2 88/2/2
f 85/6/2 86/6/2 91/6/2
f 91/6/2 86/6/2 92/6/2
f 89/6/2 90/6/2 93/6/2
f 93/6/2 90/6/2 94/6/2
f 91/7/2 92/7/2 95/7/2
f 95/7/2 92/7/2 96/7/2
f 93/7/2 94/7/2 97/7/2
f 97/7/2 94/7/2 98/7/2
f 96/7/2 92/7/2 99/7/2
f 99/7/2 92/7/2 100/7/2
f 93/7/2 97/7/2 101/7/2
f 101/7/2 97/7/2 102/7/2
f 103/8/2 104/8/2 107/8/2
f 107/8/2 104/8/2 108/8/2
f 105/8/2 106/8/2 109/8/2
f 109/8/2 106/8/2 110/8/2
f 111/5/2 112/5/2 115/5/2
f 115/5/2 112/5/2 116/5/2
f 113/5/2 114/5/2 117/5/2
f 117/5/2 114/5/2 118/5/2
f 119/2/2 120/2/2 121/2/2
f 121/2/2 120/2/2 122/2/2
f 121/7/2 122/7/2 123/7/2
f 123/7/2 122/7/2 124/7/2
f 124/7/2 122/7/2 126/7/2
f 126/7/2 122/7/2 127/7/2
f 125/1/2 126/1/2 129/1/2
f 126/1/2 127/1/2 129/1/2
f 128/1/2 129/1/2 130/1/2
f 129/1/2 127/1/2 131/1/2
f 130/1/2 129/1/2 131/1/2
f 132/8/2 133/8/2 136/8/2
f 136/8/2 133/8/2 137/8/2
f 134/8/2 135/8/2 138/8/2
f 138/8/2 135/8/2 139/8/2
f 140/8/2 141/8/2 142/8/2
f 142/8/2 141/8/2 143/8/2
f 144/1/2 145/1/2 146/1/2
f 146/1/2 145/1/2 147/1/2
f 144/1/2 146/1/2 148/1/2
f 148/1/2 146/1/2 149/1/2
f 150/6/2 151/6/2 152/6/2
f 152/6/2 151/6/2 153/6/2
f 150/6/2 152/6/2 154/6/2
f 154/6/2 152/6/2 155/6/2
f 153/6/2 151/6/2 156/6/2
f 156/6/2 151/6/2 157/6/2
f 150/6/2 154/6/2 158/6/2
f 154/9/2 155/9/2 159/9/2
f 158/6/2 154/6/2 159/6/2
f 155/6/2 152/6/2 160/6/2
f 159/9/2 155/9/2 160/9/2
f 160/6/2 152/6/2 161/6/2
f 153/6/2 156/6/2 162/6/2
f 156/9/2 157/9/2 163/9/2
f 162/6/2 156/6/2 163/6/2
f 157/6/2 151/6/2 164/6/2
f 163/9/2 157/9/2 164/9/2
f 162/6/2 163/6/2 166/6/2
f 163/6/2 164/6/2 166/6/2
f 161/6/2 162/6/2 166/6/2
f 166/6/2 164/6/2 167/6/2
f 164/6/2 151/6/2 168/6/2
f 167/6/2 164/6/2 168/6/2
f 166/6/2 167/6/2 169/6/2
f 165/6/2 166/6/2 169/6/2
f 165/6/2 169/6/2 172/6/2
f 169/6/2 170/6/2 172/6/2
f 172/6/2 170/6/2 173/6/2
f 171/8/2 172/8/2 175/8/2
f 175/8/2 172/8/2 176/8/2
f 173/8/2 174/8/2 179/8/2
f 179/8/2 174/8/2 180/8/2
f 176/8/2 177/8/2 181/8/2
f 181/8/2 177/8/2 182/8/2
f 178/8/2 179/8/2 184/8/2
f 184/8/2 179/8/2 185/8/2
f 183/8/2 184/8/2 186/8/2
f 186/8/2 184/8/2 187/8/2
f 188/3/2 189/3/2 191/3/2
f 191/3/2 189/3/2 192/3/2
f 190/4/2 191/4/2 193/4/2
f 193/4/2 191/4/2 194/4/2
f 195/4/2 196/4/2 197/4/2
f 197/4/2 196/4/2 198/4/2
f 199/8/2 200/8/2 201/8/2
f 201/8/2 200/8/2 202/8/2
f 202/8/2 200/8/2 203/8/2
f 203/8/2 200/8/2 204/8/2
f 202/8/2 203/8/2 205/8/2
f 205/8/2 203/8/2 206/8/2
f 210/6/3 208/6/3 207/6/3
f 211/7/3 209/7/3 208/7/3
f 211/6/3 208/6/3 210/6/3
f 212/7/3 209/7/3 211/7/3
f 217/8/3 214/8/3 213/8/3
f 218/8/3 214/8/3 217/8/3
f 219/7/3 216/7/3 215/7/3
f 220/7/3 216/7/3 219/7/3
f 221/8/3 214/8/3 218/8/3
f 222/8/3 214/8/3 221/8/3
f 223/8/3 214/8/3 222/8/3
f 224/8/3 214/8/3 223/8/3
f 225/8/3 214/8/3 224/8/3
f 226/8/3 214/8/3 225/8/3
f 230/8/3 228/8/3 227/8/3
f 231/8/3 228/8/3 230/8/3
f 232/8/3 228/8/3 231/8/3
f 237/6/3 230/6/3 229/6/3
f 237/6/3 231/6/3 230/6/3
f 238/2/3 235/2/3 234/2/3
f 239/7/3 236/7/3 235/7/3
f 239/2/3 235/2/3 238/2/3
f 240/1/3 237/1/3 236/1/3
f 240/7/3 236/7/3 239/7/3
f 241/6/3 231/6/3 237/6/3
f 245/1/3 237/1/3 240/1/3
f 246/6/3 242/6/3 241/6/3
f 248/2/3 244/2/3 243/2/3
f 249/7/3 245/7/3 244/7/3
f 249/2/3 244/2/3 248/2/3
f 250/7/3 245/7/3 249/7/3
f 251/1/3 237/1/3 245/1/3
f 251/7/3 245/7/3 250/7/3
f 252/1/3 237/1/3 251/1/3
f 253/6/3 247/6/3 246/6/3
f 253/1/3 237/1/3 252/1/3
f 253/6/3 241/6/3 237/6/3
f 253/6/3 246/6/3 241/6/3
f 254/6/3 247/6/3 253/6/3
f 256/1/3 252/1/3 251/1/3
f 256/1/3 251/1/3 250/1/3
f 257/1/3 252/1/3 256/1/3
f 258/6/3 255/6/3 254/6/3
f 258/6/3 254/6/3 253/6/3
f 259/6/3 255/6/3 258/6/3
f 260/6/3 255/6/3 259/6/3
f 261/6/3 255/6/3 260/6/3
f 262/8/3 233/8/3 232/8/3
f 263/8/3 233/8/3 262/8/3
f 264/4/3 260/4/3 259/4/3
f 265/4/3 260/4/3 264/4/3
f 266/8/3 262/8/3 261/8/3
f 267/8/3 262/8/3 266/8/3
f 272/5/3 269/5/3 268/5/3
f 272/7/3 270/7/3 269/7/3
f 273/2/3 271/2/3 270/2/3
f 273/7/3 270/7/3 272/7/3
f 274/2/3 271/2/3 273/2/3
f 275/5/3 272/5/3 268/5/3
f 276/5/3 272/5/3 275/5/3
f 279/3/3 278/3/3 277/3/3
f 280/3/3 278/3/3 279/3/3
f 285/5/3 282/5/3 281/5/3
f 285/7/3 283/7/3 282/7/3
f 286/2/3 284/2/3 283/2/3
f 286/7/3 283/7/3 285/7/3
f 287/2/3 284/2/3 286/2/3
f 288/5/3 285/5/3 281/5/3
f 289/5/3 285/5/3 288/5/3
f 294/4/3 291/4/3 290/4/3
f 295/4/3 291/4/3 294/4/3
f 296/8/3 293/8/3 292/8/3
f 297/8/3 293/8/3 296/8/3
f 300/8/3 299/8/3 298/8/3
f 301/8/3 299/8/3 300/8/3
f 304/8/3 303/8/3 302/8/3
f 305/8/3 303/8/3 304/8/3
f 306/1/4 307/1/4 308/1/4
f 308/1/4 307/1/4 309/1/4
f 310/1/4 311/1/4 312/1/4
f 312/1/4 311/1/4 313/1/4
f 314/5/4 315/5/4 318/5/4
f 315/7/4 316/7/4 318/7/4
f 316/2/4 317/2/4 319/2/4
f 318/7/4 316/7/4 319/7/4
f 319/2/4 317/2/4 320/2/4
f 314/5/4 318/5/4 321/5/4
f 321/5/4 318/5/4 322/5/4
f 323/4/4 324/4/4 325/4/4
f 325/4/4 324/4/4 326/4/4
f 327/3/4 328/3/4 329/3/4
f 329/3/4 328/3/4 330/3/4
f 331/5/4 332/5/4 335/5/4
f 332/7/4 333/7/4 335/7/4
f 333/2/4 334/2/4 336/2/4
f 335/7/4 333/7/4 336/7/4
f 336/2/4 334/2/4 337/2/4
f 331/5/4 335/5/4 338/5/4
f 338/5/4 335/5/4 339/5/4
f 340/8/4 341/8/4 343/8/4
f 343/8/4 341/8/4 344/8/4
f 342/8/4 343/8/4 345/8/4
f 345/8/4 343/8/4 346/8/4
f 347/8/4 348/8/4 350/8/4
f 350/8/4 348/8/4 351/8/4
f 351/8/4 348/8/4 352/8/4
f 349/6/4 350/6/4 357/6/4
f 350/6/4 351/6/4 357/6/4
f 354/2/4 355/2/4 358/2/4
f 355/7/4 356/7/4 359/7/4
f 358/2/4 355/2/4 359/2/4
f 356/1/4 357/1/4 360/1/4
f 359/7/4 356/7/4 360/7/4
f 357/6/4 351/6/4 361/6/4
f 360/1/4 357/1/4 365/1/4
f 361/6/4 362/6/4 366/6/4
f 352/8/4 353/8/4 368/8/4
f 363/2/4 364/2/4 370/2/4
f 364/7/4 365/7/4 371/7/4
f 370/2/4 364/2/4 371/2/4
f 365/1/4 357/1/4 372/1/4
f 371/7/4 365/7/4 372/7/4
f 366/6/4 367/6/4 373/6/4
f 372/1/4 357/1/4 373/1/4
f 357/6/4 361/6/4 373/6/4
f 361/6/4 366/6/4 373/6/4
f 373/6/4 367/6/4 374/6/4
f 368/8/4 369/8/4 376/8/4
f 352/8/4 368/8/4 376/8/4
f 376/8/4 369/8/4 377/8/4
f 374/6/4 375/6/4 378/6/4
f 373/6/4 374/6/4 378/6/4
f 378/6/4 375/6/4 379/6/4
f 379/6/4 375/6/4 380/6/4
f 380/6/4 375/6/4 381/6/4
f 352/8/4 376/8/4 382/8/4
f 382/8/4 376/8/4 383/8/4
f 379/4/4 380/4/4 384/4/4
f 384/4/4 380/4/4 385/4/4
f 381/8/4 382/8/4 386/8/4
f 386/8/4 382/8/4 387/8/4
f 388/8/4 389/8/4 392/8/4
f 392/8/4 389/8/4 393/8/4
f 390/7/4 391/7/4 394/7/4
f 394/7/4 391/7/4 395/7/4
f 393/8/4 389/8/4 396/8/4
f 396/8/4 389/8/4 397/8/4
f 397/8/4 389/8/4 398/8/4
f 398/8/4 389/8/4 399/8/4
f 399/8/4 389/8/4 400/8/4
f 400/8/4 389/8/4 401/8/4
f 402/6/4 403/6/4 405/6/4
f 403/7/4 404/7/4 406/7/4
f 405/6/4 403/6/4 406/6/4
f 406/7/4 404/7/4 407/7/4
f 410/5/5 409/5/5 408/5/5
f 411/5/5 409/5/5 410/5/5
f 414/5/5 413/5/5 412/5/5
f 415/5/5 413/5/5 414/5/5
f 418/2/5 417/2/5 416/2/5
f 419/2/5 417/2/5 418/2/5
f 423/6/5 421/6/5 420/6/5
f 424/6/5 421/6/5 423/6/5
f 426/2/5 423/2/5 422/2/5
f 426/2/5 425/2/5 424/2/5
f 426/2/5 424/2/5 423/2/5
f 427/2/5 425/2/5 426/2/5
f 428/2/5 426/2/5 422/2/5
f 429/2/5 425/2/5 427/2/5
f 430/2/5 428/2/5 422/2/5
f 430/2/5 429/2/5 428/2/5
f 431/2/5 429/2/5 430/2/5
f 432/2/5 425/2/5 429/2/5
f 432/2/5 429/2/5 431/2/5
f 433/2/5 425/2/5 432/2/5
f 434/6/5 432/6/5 431/6/5
f 435/6/5 432/6/5 434/6/5
f 438/1/5 437/1/5 436/1/5
f 439/1/5 437/1/5 438/1/5
f 444/6/5 441/6/5 440/6/5
f 445/6/5 441/6/5 444/6/5
f 446/6/5 443/6/5 442/6/5
f 447/6/5 443/6/5 446/6/5
f 452/3/5 451/3/5 450/3/5
f 453/3/5 451/3/5 452/3/5
f 454/8/5 449/8/5 448/8/5
f 455/8/5 449/8/5 454/8/5
f 458/8/5 457/8/5 456/8/5
f 459/8/5 457/8/5 458/8/5
f 462/8/5 461/8/5 460/8/5
f 463/8/5 461/8/5 462/8/5
f 466/8/5 465/8/5 464/8/5
f 467/8/5 465/8/5 466/8/5
f 470/8/5 469/8/5 468/8/5
f 471/8/5 469/8/5 470/8/5
f 474/8/5 473/8/5 472/8/5
f 475/8/5 473/8/5 474/8/5
f 478/4/5 477/4/5 476/4/5
f 479/4/5 477/4/5 478/4/5
f 480/4/5 477/4/5 479/4/5
f 481/4/5 477/4/5 480/4/5
f 484/8/5 483/8/5 482/8/5
f 485/8/5 483/8/5 484/8/5
f 488/4/5 487/4/5 486/4/5
f 489/4/5 487/4/5 488/4/5
f 492/8/5 491/8/5 490/8/5
f 493/8/5 491/8/5 492/8/5
f 496/8/5 494/8/5 493/8/5
f 497/8/5 494/8/5 496/8/5
f 498/8/5 496/8/5 495/8/5
f 499/8/5 496/8/5 498/8/5
f 500/5/6 501/5/6 502/5/6
f 502/5/6 501/5/6 503/5/6
f 504/5/6 505/5/6 506/5/6
f 506/5/6 505/5/6 507/5/6
f 508/7/6 509/7/6 510/7/6
f 510/7/6 509/7/6 511/7/6
f 512/7/6 513/7/6 514/7/6
f 514/7/6 513/7/6 515/7/6
f 516/7/6 517/7/6 518/7/6
f 518/7/6 517/7/6 519/7/6
f 520/1/6 521/1/6 522/1/6
f 522/1/6 521/1/6 523/1/6
f 524/7/6 525/7/6 526/7/6
f 526/7/6 525/7/6 527/7/6
f 528/1/6 529/1/6 530/1/6
f 530/1/6 529/1/6 531/1/6
f 532/3/6 533/3/6 534/3/6
f 534/3/6 533/3/6 535/3/6
f 536/4/6 537/4/6 538/4/6
f 538/4/6 537/4/6 539/4/6
f 540/4/6 541/4/6 542/4/6
f 542/4/6 541/4/6 543/4/6
f 544/8/6 545/8/6 547/8/6
f 547/8/6 545/8/6 548/8/6
f 548/8/6 549/8/6 550/8/6
f 550/8/6 549/8/6 551/8/6
f 546/8/6 547/8/6 554/8/6
f 554/8/6 547/8/6 555/8/6
f 552/8/6 553/8/6 556/8/6
f 556/8/6 553/8/6 557/8/6
f 555/8/6 556/8/6 558/8/6
f 558/8/6 556/8/6 559/8/6
f 560/8/6 561/8/6 562/8/6
f 560/8/6 562/8/6 564/8/6
f 562/8/6 563/8/6 564/8/6
f 564/8/6 563/8/6 565/8/6
f 560/8/6 564/8/6 566/8/6
f 566/8/6 564/8/6 567/8/6
f 565/8/6 563/8/6 568/8/6
f 568/8/6 563/8/6 569/8/6
f 560/8/6 566/8/6 570/8/6
f 570/8/6 566/8/6 571/8/6
f 567/8/6 568/8/6 572/8/6
f 572/8/6 568/8/6 573/8/6
f 574/8/6 575/8/6 577/8/6
f 577/8/6 575/8/6 578/8/6
f 576/8/6 577/8/6 579/8/6
f 579/8/6 577/8/6 580/8/6
