# MagicaVoxel @ Ephtracy

# group
o 

# material
mtllib scarf_girl.mtl
usemtl palette

# normals
vn -1 0 0
vn 1 0 0
vn 0 0 1
vn 0 0 -1
vn 0 -1 0
vn 0 1 0

# texcoords
vt 0.00195313 0.5
vt 0.00585938 0.5
vt 0.00976563 0.5
vt 0.0136719 0.5
vt 0.0175781 0.5
vt 0.0214844 0.5
vt 0.0292969 0.5
vt 0.0527344 0.5
vt 0.0761719 0.5

# verts
v -0.4 2.6 0.4
v -0.4 2.6 -0.4
v -0.4 3.4 0.4
v -0.4 3.4 -0.4
v -0.3 0.7 0.4
v -0.3 0.7 -0.4
v -0.3 1 0.4
v -0.3 1 0.3
v -0.3 1 -0.3
v -0.3 1 -0.4
v -0.3 1.1 0.3
v -0.3 1.1 0.2
v -0.3 1.1 -0.2
v -0.3 1.1 -0.3
v -0.3 1.2 0.2
v -0.3 1.2 -0.2
v -0.3 2.5 0.5
v -0.3 2.5 -0.4
v -0.3 2.6 0.4
v -0.3 2.6 -0.4
v -0.3 2.6 -0.5
v -0.3 3.4 0.5
v -0.3 3.4 0.4
v -0.3 3.4 -0.4
v -0.3 3.4 -0.5
v -0.3 3.5 0.4
v -0.3 3.5 -0.4
v -0.2 0.7 0.5
v -0.2 0.7 0.4
v -0.2 0.7 -0.4
v -0.2 0.7 -0.5
v -0.2 1 0.5
v -0.2 1 0.4
v -0.2 1 0.3
v -0.2 1 -0.3
v -0.2 1 -0.4
v -0.2 1 -0.5
v -0.2 1.1 0.3
v -0.2 1.1 0.2
v -0.2 1.1 -0.2
v -0.2 1.1 -0.3
v -0.2 1.2 0.2
v -0.2 1.2 -0.2
v -0.2 2.4 0.4
v -0.2 2.4 0.3
v -0.2 2.4 -0.3
v -0.2 2.4 -0.4
v -0.2 2.5 0.3
v -0.2 2.5 -0.3
v -0.2 2.5 -0.4
v -0.2 2.5 -0.5
v -0.2 2.6 -0.4
v -0.2 2.6 -0.5
v -0.1 0 0.3
v -0.1 0 0.1
v -0.1 0 -0.1
v -0.1 0 -0.3
v -0.1 0.2 0.3
v -0.1 0.2 0.1
v -0.1 0.2 -0.1
v -0.1 0.2 -0.3
v -0.1 0.7 0.3
v -0.1 0.7 0.1
v -0.1 0.7 -0.1
v -0.1 0.7 -0.3
v -0.1 1 0.5
v -0.1 1 0.4
v -0.1 1 -0.4
v -0.1 1 -0.5
v -0.1 1.1 0.6
v -0.1 1.1 0.5
v -0.1 1.1 0.4
v -0.1 1.1 -0.4
v -0.1 1.1 -0.5
v -0.1 1.1 -0.6
v -0.1 1.3 0.6
v -0.1 1.3 0.4
v -0.1 1.3 -0.4
v -0.1 1.3 -0.6
v -0.1 2.3 0.6
v -0.1 2.3 0.5
v -0.1 2.3 -0.5
v -0.1 2.3 -0.6
v -0.1 2.4 0.5
v -0.1 2.4 0.4
v -0.1 2.4 0.3
v -0.1 2.4 -0.3
v -0.1 2.4 -0.4
v -0.1 2.4 -0.5
v -0.1 2.5 0.4
v -0.1 2.5 0.3
v -0.1 2.5 -0.3
v -0.1 2.5 -0.4
v 0.1 0.2 0.3
v 0.1 0.2 0.1
v 0.1 0.2 -0.1
v 0.1 0.2 -0.3
v 0.1 0.7 0.3
v 0.1 0.7 0.1
v 0.1 0.7 -0.1
v 0.1 0.7 -0.3
v 0.1 1 0.5
v 0.1 1 0.4
v 0.1 1 -0.4
v 0.1 1 -0.5
v 0.1 1.1 0.6
v 0.1 1.1 0.5
v 0.1 1.1 0.4
v 0.1 1.1 -0.4
v 0.1 1.1 -0.5
v 0.1 1.1 -0.6
v 0.1 1.3 0.6
v 0.1 1.3 0.4
v 0.1 1.3 -0.4
v 0.1 1.3 -0.6
v 0.1 2.3 0.6
v 0.1 2.3 0.5
v 0.1 2.3 -0.5
v 0.1 2.3 -0.6
v 0.1 2.4 0.5
v 0.1 2.4 0.4
v 0.1 2.4 0.3
v 0.1 2.4 -0.3
v 0.1 2.4 -0.4
v 0.1 2.4 -0.5
v 0.1 2.5 0.5
v 0.1 2.5 0.4
v 0.1 2.5 0.3
v 0.1 2.5 -0.3
v 0.1 2.5 -0.4
v 0.1 2.5 -0.5
v 0.1 2.6 0.5
v 0.1 2.6 0.4
v 0.1 2.6 -0.4
v 0.1 2.6 -0.5
v 0.2 0 0.3
v 0.2 0 0.1
v 0.2 0 -0.1
v 0.2 0 -0.3
v 0.2 0.2 0.3
v 0.2 0.2 0.1
v 0.2 0.2 -0.1
v 0.2 0.2 -0.3
v 0.2 0.7 0.5
v 0.2 0.7 0.4
v 0.2 0.7 -0.4
v 0.2 0.7 -0.5
v 0.2 1 0.5
v 0.2 1 0.4
v 0.2 1 -0.4
v 0.2 1 -0.5
v 0.2 1.1 0.4
v 0.2 1.1 0.3
v 0.2 1.1 -0.3
v 0.2 1.1 -0.4
v 0.2 1.3 0.3
v 0.2 1.3 -0.3
v 0.2 2.3 0.1
v 0.2 2.3 -0.1
v 0.2 2.4 0.4
v 0.2 2.4 0.3
v 0.2 2.4 0.2
v 0.2 2.4 0.1
v 0.2 2.4 -0.1
v 0.2 2.4 -0.2
v 0.2 2.4 -0.3
v 0.2 2.4 -0.4
v 0.2 2.5 0.3
v 0.2 2.5 0.2
v 0.2 2.5 -0.2
v 0.2 2.5 -0.3
v 0.2 2.6 0.5
v 0.2 2.6 0.4
v 0.2 2.6 -0.4
v 0.2 2.6 -0.5
v 0.2 3 0.5
v 0.2 3 0.4
v 0.2 3 -0.4
v 0.2 3 -0.5
v 0.3 0.7 0.4
v 0.3 0.7 -0.4
v 0.3 1.1 0.4
v 0.3 1.1 0.3
v 0.3 1.1 -0.3
v 0.3 1.1 -0.4
v 0.3 1.3 0.3
v 0.3 1.3 -0.3
v 0.3 2.5 0.4
v 0.3 2.5 -0.4
v 0.3 2.6 0.1
v 0.3 2.6 -0.1
v 0.3 2.7 0.1
v 0.3 2.7 -0.1
v 0.3 2.8 0.3
v 0.3 2.8 0.2
v 0.3 2.8 0.1
v 0.3 2.8 -0.1
v 0.3 2.8 -0.2
v 0.3 2.8 -0.3
v 0.3 3 0.5
v 0.3 3 0.4
v 0.3 3 0.3
v 0.3 3 0.2
v 0.3 3 0.1
v 0.3 3 -0.1
v 0.3 3 -0.2
v 0.3 3 -0.3
v 0.3 3 -0.4
v 0.3 3 -0.5
v 0.3 3.1 0.4
v 0.3 3.1 0.1
v 0.3 3.1 5.96046e-008
v 0.3 3.1 -0.1
v 0.3 3.2 0.1
v 0.3 3.2 5.96046e-008
v 0.3 3.3 0.4
v 0.3 3.3 0.1
v 0.3 3.4 0.5
v 0.3 3.4 0.4
v 0.3 3.4 -0.4
v 0.3 3.4 -0.5
v 0.3 3.5 0.4
v 0.3 3.5 -0.4
v 0.4 2.8 0.1
v 0.4 2.8 -0.1
v 0.4 3 0.4
v 0.4 3 0.1
v 0.4 3 -0.1
v 0.4 3 -0.4
v 0.4 3.1 0.4
v 0.4 3.1 0.1
v 0.4 3.1 5.96046e-008
v 0.4 3.1 -0.1
v 0.4 3.2 0.1
v 0.4 3.2 5.96046e-008
v 0.4 3.3 0.4
v 0.4 3.3 0.1
v 0.4 3.4 0.4
v 0.4 3.4 -0.4
v -0.1 1.1 0.6
v -0.1 1.3 0.6
v -0.1 2.3 0.6
v 0.1 1.1 0.6
v 0.1 1.3 0.6
v 0.1 2.3 0.6
v -0.3 2.5 0.5
v -0.3 3.4 0.5
v -0.2 0.7 0.5
v -0.2 1 0.5
v -0.1 1 0.5
v -0.1 1.1 0.5
v -0.1 2.3 0.5
v -0.1 2.4 0.5
v 0.1 1 0.5
v 0.1 1.1 0.5
v 0.1 2.3 0.5
v 0.1 2.4 0.5
v 0.1 2.5 0.5
v 0.1 2.6 0.5
v 0.2 0.7 0.5
v 0.2 1 0.5
v 0.2 2.6 0.5
v 0.2 3 0.5
v 0.3 3 0.5
v 0.3 3.4 0.5
v -0.4 2.6 0.4
v -0.4 3.4 0.4
v -0.3 0.7 0.4
v -0.3 1 0.4
v -0.3 2.6 0.4
v -0.3 3.4 0.4
v -0.3 3.5 0.4
v -0.2 0.7 0.4
v -0.2 1 0.4
v -0.2 2.4 0.4
v -0.1 1 0.4
v -0.1 1.1 0.4
v -0.1 1.3 0.4
v -0.1 2.4 0.4
v -0.1 2.5 0.4
v 0.1 1 0.4
v 0.1 1.1 0.4
v 0.1 1.3 0.4
v 0.1 2.4 0.4
v 0.1 2.5 0.4
v 0.1 2.6 0.4
v 0.2 0.7 0.4
v 0.2 1 0.4
v 0.2 1.1 0.4
v 0.2 2.4 0.4
v 0.2 2.5 0.4
v 0.2 2.6 0.4
v 0.2 3 0.4
v 0.3 0.7 0.4
v 0.3 1.1 0.4
v 0.3 2.5 0.4
v 0.3 3 0.4
v 0.3 3.1 0.4
v 0.3 3.3 0.4
v 0.3 3.4 0.4
v 0.3 3.5 0.4
v 0.4 3 0.4
v 0.4 3.1 0.4
v 0.4 3.3 0.4
v 0.4 3.4 0.4
v -0.3 1 0.3
v -0.3 1.1 0.3
v -0.2 1 0.3
v -0.2 1.1 0.3
v -0.2 2.4 0.3
v -0.2 2.5 0.3
v -0.1 0 0.3
v -0.1 0.2 0.3
v -0.1 0.7 0.3
v -0.1 2.4 0.3
v -0.1 2.5 0.3
v 0.1 0.2 0.3
v 0.1 0.7 0.3
v 0.1 2.4 0.3
v 0.1 2.5 0.3
v 0.2 0 0.3
v 0.2 0.2 0.3
v 0.2 1.1 0.3
v 0.2 1.3 0.3
v 0.2 2.4 0.3
v 0.2 2.5 0.3
v 0.3 1.1 0.3
v 0.3 1.3 0.3
v -0.3 1.1 0.2
v -0.3 1.2 0.2
v -0.2 1.1 0.2
v -0.2 1.2 0.2
v 0.3 2.8 0.1
v 0.3 3 0.1
v 0.3 3.2 0.1
v 0.3 3.3 0.1
v 0.4 2.8 0.1
v 0.4 3 0.1
v 0.4 3.2 0.1
v 0.4 3.3 0.1
v 0.3 3.1 5.96046e-008
v 0.3 3.2 5.96046e-008
v 0.4 3.1 5.96046e-008
v 0.4 3.2 5.96046e-008
v -0.1 0 -0.1
v -0.1 0.2 -0.1
v -0.1 0.7 -0.1
v 0.1 0.2 -0.1
v 0.1 0.7 -0.1
v 0.2 0 -0.1
v 0.2 0.2 -0.1
v 0.3 3 -0.1
v 0.3 3.1 -0.1
v 0.4 3 -0.1
v 0.4 3.1 -0.1
v -0.1 0 0.1
v -0.1 0.2 0.1
v -0.1 0.7 0.1
v 0.1 0.2 0.1
v 0.1 0.7 0.1
v 0.2 0 0.1
v 0.2 0.2 0.1
v 0.3 3 0.1
v 0.3 3.1 0.1
v 0.4 3 0.1
v 0.4 3.1 0.1
v 0.3 2.8 -0.1
v 0.3 3 -0.1
v 0.4 2.8 -0.1
v 0.4 3 -0.1
v -0.3 1.1 -0.2
v -0.3 1.2 -0.2
v -0.2 1.1 -0.2
v -0.2 1.2 -0.2
v -0.3 1 -0.3
v -0.3 1.1 -0.3
v -0.2 1 -0.3
v -0.2 1.1 -0.3
v -0.2 2.4 -0.3
v -0.2 2.5 -0.3
v -0.1 0 -0.3
v -0.1 0.2 -0.3
v -0.1 0.7 -0.3
v -0.1 2.4 -0.3
v -0.1 2.5 -0.3
v 0.1 0.2 -0.3
v 0.1 0.7 -0.3
v 0.1 2.4 -0.3
v 0.1 2.5 -0.3
v 0.2 0 -0.3
v 0.2 0.2 -0.3
v 0.2 1.1 -0.3
v 0.2 1.3 -0.3
v 0.2 2.4 -0.3
v 0.2 2.5 -0.3
v 0.3 1.1 -0.3
v 0.3 1.3 -0.3
v -0.4 2.6 -0.4
v -0.4 3.4 -0.4
v -0.3 0.7 -0.4
v -0.3 1 -0.4
v -0.3 2.5 -0.4
v -0.3 2.6 -0.4
v -0.3 3.4 -0.4
v -0.3 3.5 -0.4
v -0.2 0.7 -0.4
v -0.2 1 -0.4
v -0.2 2.4 -0.4
v -0.2 2.5 -0.4
v -0.2 2.6 -0.4
v -0.1 1 -0.4
v -0.1 1.1 -0.4
v -0.1 1.3 -0.4
v -0.1 2.4 -0.4
v -0.1 2.5 -0.4
v 0.1 1 -0.4
v 0.1 1.1 -0.4
v 0.1 1.3 -0.4
v 0.1 2.4 -0.4
v 0.1 2.5 -0.4
v 0.1 2.6 -0.4
v 0.2 0.7 -0.4
v 0.2 1 -0.4
v 0.2 1.1 -0.4
v 0.2 2.4 -0.4
v 0.2 2.5 -0.4
v 0.2 2.6 -0.4
v 0.2 3 -0.4
v 0.3 0.7 -0.4
v 0.3 1.1 -0.4
v 0.3 2.5 -0.4
v 0.3 3 -0.4
v 0.3 3.4 -0.4
v 0.3 3.5 -0.4
v 0.4 3 -0.4
v 0.4 3.4 -0.4
v -0.3 2.6 -0.5
v -0.3 3.4 -0.5
v -0.2 0.7 -0.5
v -0.2 1 -0.5
v -0.2 2.5 -0.5
v -0.2 2.6 -0.5
v -0.1 1 -0.5
v -0.1 1.1 -0.5
v -0.1 2.3 -0.5
v -0.1 2.4 -0.5
v 0.1 1 -0.5
v 0.1 1.1 -0.5
v 0.1 2.3 -0.5
v 0.1 2.4 -0.5
v 0.1 2.5 -0.5
v 0.1 2.6 -0.5
v 0.2 0.7 -0.5
v 0.2 1 -0.5
v 0.2 2.6 -0.5
v 0.2 3 -0.5
v 0.3 3 -0.5
v 0.3 3.4 -0.5
v -0.1 1.1 -0.6
v -0.1 1.3 -0.6
v -0.1 2.3 -0.6
v 0.1 1.1 -0.6
v 0.1 1.3 -0.6
v 0.1 2.3 -0.6
v -0.1 0 0.3
v 0.2 0 0.3
v -0.1 0 0.1
v 0.2 0 0.1
v -0.1 0 -0.1
v 0.2 0 -0.1
v -0.1 0 -0.3
v 0.2 0 -0.3
v -0.2 0.7 0.5
v 0.2 0.7 0.5
v -0.3 0.7 0.4
v -0.2 0.7 0.4
v 0.2 0.7 0.4
v 0.3 0.7 0.4
v -0.1 0.7 0.3
v 0.1 0.7 0.3
v -0.1 0.7 0.1
v 0.1 0.7 0.1
v -0.1 0.7 -0.1
v 0.1 0.7 -0.1
v -0.1 0.7 -0.3
v 0.1 0.7 -0.3
v -0.3 0.7 -0.4
v -0.2 0.7 -0.4
v 0.2 0.7 -0.4
v 0.3 0.7 -0.4
v -0.2 0.7 -0.5
v 0.2 0.7 -0.5
v -0.1 1.1 0.6
v 0.1 1.1 0.6
v -0.1 1.1 0.5
v 0.1 1.1 0.5
v -0.1 1.1 -0.5
v 0.1 1.1 -0.5
v -0.1 1.1 -0.6
v 0.1 1.1 -0.6
v -0.3 2.5 0.5
v 0.1 2.5 0.5
v -0.1 2.5 0.4
v 0.1 2.5 0.4
v 0.2 2.5 0.4
v 0.3 2.5 0.4
v -0.2 2.5 0.3
v -0.1 2.5 0.3
v 0.1 2.5 0.3
v 0.2 2.5 0.3
v 0.2 2.5 0.2
v 0.2 2.5 -0.2
v -0.2 2.5 -0.3
v -0.1 2.5 -0.3
v 0.1 2.5 -0.3
v 0.2 2.5 -0.3
v -0.3 2.5 -0.4
v -0.2 2.5 -0.4
v -0.1 2.5 -0.4
v 0.1 2.5 -0.4
v 0.2 2.5 -0.4
v 0.3 2.5 -0.4
v -0.2 2.5 -0.5
v 0.1 2.5 -0.5
v 0.1 2.6 0.5
v 0.2 2.6 0.5
v -0.4 2.6 0.4
v -0.3 2.6 0.4
v 0.1 2.6 0.4
v 0.2 2.6 0.4
v -0.4 2.6 -0.4
v -0.3 2.6 -0.4
v -0.2 2.6 -0.4
v 0.1 2.6 -0.4
v 0.2 2.6 -0.4
v -0.3 2.6 -0.5
v -0.2 2.6 -0.5
v 0.1 2.6 -0.5
v 0.2 2.6 -0.5
v 0.3 2.8 0.1
v 0.4 2.8 0.1
v 0.3 2.8 -0.1
v 0.4 2.8 -0.1
v 0.2 3 0.5
v 0.3 3 0.5
v 0.2 3 0.4
v 0.3 3 0.4
v 0.4 3 0.4
v 0.3 3 0.3
v 0.3 3 0.2
v 0.3 3 0.1
v 0.4 3 0.1
v 0.3 3 -0.1
v 0.4 3 -0.1
v 0.3 3 -0.2
v 0.3 3 -0.3
v 0.2 3 -0.4
v 0.3 3 -0.4
v 0.4 3 -0.4
v 0.2 3 -0.5
v 0.3 3 -0.5
v 0.3 3.1 5.96046e-008
v 0.4 3.1 5.96046e-008
v 0.3 3.1 -0.1
v 0.4 3.1 -0.1
v 0.3 3.2 0.1
v 0.4 3.2 0.1
v 0.3 3.2 5.96046e-008
v 0.4 3.2 5.96046e-008
v 0.3 3.3 0.4
v 0.4 3.3 0.4
v 0.3 3.3 0.1
v 0.4 3.3 0.1
v 0.1 0.2 0.3
v 0.2 0.2 0.3
v 0.1 0.2 0.1
v 0.2 0.2 0.1
v 0.1 0.2 -0.1
v 0.2 0.2 -0.1
v 0.1 0.2 -0.3
v 0.2 0.2 -0.3
v -0.2 1 0.5
v -0.1 1 0.5
v 0.1 1 0.5
v 0.2 1 0.5
v -0.3 1 0.4
v -0.2 1 0.4
v -0.1 1 0.4
v 0.1 1 0.4
v 0.2 1 0.4
v -0.3 1 0.3
v -0.2 1 0.3
v -0.3 1 -0.3
v -0.2 1 -0.3
v -0.3 1 -0.4
v -0.2 1 -0.4
v -0.1 1 -0.4
v 0.1 1 -0.4
v 0.2 1 -0.4
v -0.2 1 -0.5
v -0.1 1 -0.5
v 0.1 1 -0.5
v 0.2 1 -0.5
v 0.2 1.1 0.4
v 0.3 1.1 0.4
v -0.3 1.1 0.3
v -0.2 1.1 0.3
v 0.2 1.1 0.3
v 0.3 1.1 0.3
v -0.3 1.1 0.2
v -0.2 1.1 0.2
v -0.3 1.1 -0.2
v -0.2 1.1 -0.2
v -0.3 1.1 -0.3
v -0.2 1.1 -0.3
v 0.2 1.1 -0.3
v 0.3 1.1 -0.3
v 0.2 1.1 -0.4
v 0.3 1.1 -0.4
v -0.3 1.2 0.2
v -0.2 1.2 0.2
v -0.3 1.2 -0.2
v -0.2 1.2 -0.2
v 0.2 1.3 0.3
v 0.3 1.3 0.3
v 0.2 1.3 -0.3
v 0.3 1.3 -0.3
v -0.1 2.3 0.6
v 0.1 2.3 0.6
v -0.1 2.3 0.5
v 0.1 2.3 0.5
v -0.1 2.3 -0.5
v 0.1 2.3 -0.5
v -0.1 2.3 -0.6
v 0.1 2.3 -0.6
v -0.1 2.4 0.5
v 0.1 2.4 0.5
v -0.2 2.4 0.4
v -0.1 2.4 0.4
v 0.1 2.4 0.4
v 0.2 2.4 0.4
v -0.2 2.4 0.3
v -0.1 2.4 0.3
v 0.1 2.4 0.3
v 0.2 2.4 0.3
v -0.2 2.4 -0.3
v -0.1 2.4 -0.3
v 0.1 2.4 -0.3
v 0.2 2.4 -0.3
v -0.2 2.4 -0.4
v -0.1 2.4 -0.4
v 0.1 2.4 -0.4
v 0.2 2.4 -0.4
v -0.1 2.4 -0.5
v 0.1 2.4 -0.5
v 0.3 3 0.1
v 0.4 3 0.1
v 0.3 3 -0.1
v 0.4 3 -0.1
v 0.3 3.1 0.4
v 0.4 3.1 0.4
v 0.3 3.1 0.1
v 0.4 3.1 0.1
v -0.3 3.4 0.5
v 0.3 3.4 0.5
v -0.4 3.4 0.4
v -0.3 3.4 0.4
v 0.3 3.4 0.4
v 0.4 3.4 0.4
v -0.4 3.4 -0.4
v -0.3 3.4 -0.4
v 0.3 3.4 -0.4
v 0.4 3.4 -0.4
v -0.3 3.4 -0.5
v 0.3 3.4 -0.5
v -0.3 3.5 0.4
v 0.3 3.5 0.4
v -0.3 3.5 -0.4
v 0.3 3.5 -0.4

# faces
f 3/5/1 2/5/1 1/5/1
f 4/5/1 2/5/1 3/5/1
f 7/1/1 6/1/1 5/1/1
f 8/1/1 6/1/1 7/1/1
f 9/1/1 6/1/1 8/1/1
f 10/1/1 6/1/1 9/1/1
f 11/1/1 9/1/1 8/1/1
f 12/1/1 9/1/1 11/1/1
f 13/1/1 9/1/1 12/1/1
f 14/1/1 9/1/1 13/1/1
f 15/1/1 13/1/1 12/1/1
f 16/1/1 13/1/1 15/1/1
f 19/5/1 18/5/1 17/5/1
f 20/5/1 18/5/1 19/5/1
f 22/5/1 19/5/1 17/5/1
f 23/5/1 19/5/1 22/5/1
f 24/5/1 21/5/1 20/5/1
f 25/5/1 21/5/1 24/5/1
f 26/5/1 24/5/1 23/5/1
f 27/5/1 24/5/1 26/5/1
f 32/1/1 29/1/1 28/1/1
f 33/1/1 29/1/1 32/1/1
f 36/1/1 31/1/1 30/1/1
f 37/1/1 31/1/1 36/1/1
f 38/1/1 34/1/1 33/1/1
f 41/1/1 36/1/1 35/1/1
f 42/1/1 39/1/1 38/1/1
f 43/1/1 41/1/1 40/1/1
f 44/1/1 42/1/1 38/1/1
f 44/1/1 43/1/1 42/1/1
f 44/1/1 38/1/1 33/1/1
f 45/1/1 43/1/1 44/1/1
f 46/1/1 41/1/1 43/1/1
f 46/1/1 43/1/1 45/1/1
f 46/1/1 36/1/1 41/1/1
f 47/1/1 36/1/1 46/1/1
f 48/5/1 46/5/1 45/5/1
f 49/5/1 46/5/1 48/5/1
f 52/5/1 51/5/1 50/5/1
f 53/5/1 51/5/1 52/5/1
f 58/3/1 55/3/1 54/3/1
f 59/3/1 55/3/1 58/3/1
f 60/3/1 57/3/1 56/3/1
f 61/3/1 57/3/1 60/3/1
f 62/8/1 59/8/1 58/8/1
f 63/8/1 59/8/1 62/8/1
f 64/8/1 61/8/1 60/8/1
f 65/8/1 61/8/1 64/8/1
f 71/1/1 67/1/1 66/1/1
f 72/1/1 67/1/1 71/1/1
f 73/1/1 69/1/1 68/1/1
f 74/1/1 69/1/1 73/1/1
f 76/8/1 72/8/1 71/8/1
f 76/8/1 71/8/1 70/8/1
f 77/8/1 72/8/1 76/8/1
f 78/8/1 75/8/1 74/8/1
f 78/8/1 74/8/1 73/8/1
f 79/8/1 75/8/1 78/8/1
f 80/1/1 77/1/1 76/1/1
f 81/1/1 77/1/1 80/1/1
f 82/1/1 79/1/1 78/1/1
f 83/1/1 79/1/1 82/1/1
f 84/1/1 77/1/1 81/1/1
f 85/1/1 77/1/1 84/1/1
f 88/1/1 82/1/1 78/1/1
f 89/1/1 82/1/1 88/1/1
f 90/5/1 86/5/1 85/5/1
f 91/5/1 86/5/1 90/5/1
f 92/5/1 88/5/1 87/5/1
f 93/5/1 88/5/1 92/5/1
f 94/8/2 95/8/2 98/8/2
f 98/8/2 95/8/2 99/8/2
f 96/8/2 97/8/2 100/8/2
f 100/8/2 97/8/2 101/8/2
f 102/1/2 103/1/2 107/1/2
f 107/1/2 103/1/2 108/1/2
f 104/1/2 105/1/2 109/1/2
f 109/1/2 105/1/2 110/1/2
f 107/8/2 108/8/2 112/8/2
f 106/8/2 107/8/2 112/8/2
f 112/8/2 108/8/2 113/8/2
f 110/8/2 111/8/2 114/8/2
f 109/8/2 110/8/2 114/8/2
f 114/8/2 111/8/2 115/8/2
f 112/1/2 113/1/2 116/1/2
f 116/1/2 113/1/2 117/1/2
f 114/1/2 115/1/2 118/1/2
f 118/1/2 115/1/2 119/1/2
f 117/1/2 113/1/2 120/1/2
f 120/1/2 113/1/2 121/1/2
f 114/1/2 118/1/2 124/1/2
f 124/1/2 118/1/2 125/1/2
f 121/5/2 122/5/2 127/5/2
f 127/5/2 122/5/2 128/5/2
f 123/5/2 124/5/2 129/5/2
f 129/5/2 124/5/2 130/5/2
f 126/5/2 127/5/2 132/5/2
f 132/5/2 127/5/2 133/5/2
f 130/5/2 131/5/2 134/5/2
f 134/5/2 131/5/2 135/5/2
f 136/3/2 137/3/2 140/3/2
f 140/3/2 137/3/2 141/3/2
f 138/3/2 139/3/2 142/3/2
f 142/3/2 139/3/2 143/3/2
f 144/1/2 145/1/2 148/1/2
f 148/1/2 145/1/2 149/1/2
f 146/1/2 147/1/2 150/1/2
f 150/1/2 147/1/2 151/1/2
f 152/1/2 153/1/2 156/1/2
f 154/1/2 155/1/2 157/1/2
f 156/1/2 157/1/2 158/1/2
f 158/1/2 157/1/2 159/1/2
f 152/1/2 156/1/2 160/1/2
f 156/1/2 158/1/2 160/1/2
f 160/1/2 158/1/2 161/1/2
f 161/1/2 158/1/2 162/1/2
f 158/8/2 159/8/2 163/8/2
f 162/1/2 158/1/2 163/1/2
f 159/1/2 157/1/2 164/1/2
f 163/8/2 159/8/2 164/8/2
f 164/1/2 157/1/2 165/1/2
f 157/1/2 155/1/2 166/1/2
f 165/1/2 157/1/2 166/1/2
f 166/1/2 155/1/2 167/1/2
f 161/5/2 162/5/2 168/5/2
f 162/8/2 163/8/2 169/8/2
f 168/5/2 162/5/2 169/5/2
f 164/8/2 165/8/2 169/8/2
f 163/8/2 164/8/2 169/8/2
f 165/5/2 166/5/2 170/5/2
f 169/8/2 165/8/2 170/8/2
f 170/5/2 166/5/2 171/5/2
f 172/5/2 173/5/2 176/5/2
f 176/5/2 173/5/2 177/5/2
f 174/5/2 175/5/2 178/5/2
f 178/5/2 175/5/2 179/5/2
f 180/1/2 181/1/2 182/1/2
f 182/1/2 181/1/2 183/1/2
f 183/1/2 181/1/2 184/1/2
f 184/1/2 181/1/2 185/1/2
f 183/1/2 184/1/2 186/1/2
f 186/1/2 184/1/2 187/1/2
f 188/8/2 189/8/2 190/8/2
f 190/8/2 189/8/2 191/8/2
f 188/8/2 190/8/2 192/8/2
f 190/6/2 191/6/2 192/6/2
f 191/8/2 189/8/2 193/8/2
f 192/6/2 191/6/2 193/6/2
f 188/8/2 192/8/2 194/8/2
f 192/8/2 193/8/2 194/8/2
f 194/8/2 193/8/2 195/8/2
f 195/8/2 193/8/2 196/8/2
f 193/8/2 189/8/2 197/8/2
f 196/8/2 193/8/2 197/8/2
f 197/8/2 189/8/2 198/8/2
f 198/8/2 189/8/2 199/8/2
f 188/8/2 194/8/2 201/8/2
f 194/2/2 195/2/2 202/2/2
f 201/8/2 194/8/2 202/8/2
f 195/8/2 196/8/2 203/8/2
f 202/2/2 195/2/2 203/2/2
f 203/8/2 196/8/2 204/8/2
f 197/8/2 198/8/2 205/8/2
f 198/2/2 199/2/2 206/2/2
f 205/8/2 198/8/2 206/8/2
f 199/8/2 189/8/2 207/8/2
f 206/2/2 199/2/2 207/2/2
f 207/8/2 189/8/2 208/8/2
f 200/5/2 201/5/2 210/5/2
f 204/8/2 205/8/2 211/8/2
f 211/8/2 205/8/2 212/8/2
f 212/8/2 205/8/2 213/8/2
f 210/8/2 211/8/2 214/8/2
f 211/8/2 212/8/2 214/8/2
f 214/8/2 212/8/2 215/8/2
f 200/5/2 210/5/2 216/5/2
f 210/8/2 214/8/2 216/8/2
f 216/8/2 214/8/2 217/8/2
f 200/5/2 216/5/2 218/5/2
f 218/5/2 216/5/2 219/5/2
f 208/5/2 209/5/2 220/5/2
f 220/5/2 209/5/2 221/5/2
f 219/5/2 220/5/2 222/5/2
f 222/5/2 220/5/2 223/5/2
f 224/9/2 225/9/2 227/9/2
f 227/9/2 225/9/2 228/9/2
f 226/5/2 227/5/2 230/5/2
f 230/5/2 227/5/2 231/5/2
f 228/5/2 229/5/2 233/5/2
f 232/5/2 233/5/2 235/5/2
f 234/5/2 235/5/2 237/5/2
f 236/5/2 237/5/2 238/5/2
f 233/5/2 229/5/2 239/5/2
f 238/5/2 237/5/2 239/5/2
f 235/5/2 233/5/2 239/5/2
f 237/5/2 235/5/2 239/5/2
f 243/8/3 241/8/3 240/8/3
f 244/1/3 242/1/3 241/1/3
f 244/8/3 241/8/3 243/8/3
f 245/1/3 242/1/3 244/1/3
f 250/1/3 249/1/3 248/1/3
f 254/1/3 250/1/3 248/1/3
f 254/1/3 251/1/3 250/1/3
f 255/1/3 251/1/3 254/1/3
f 256/1/3 253/1/3 252/1/3
f 257/1/3 253/1/3 256/1/3
f 258/5/3 247/5/3 246/5/3
f 259/5/3 247/5/3 258/5/3
f 260/1/3 254/1/3 248/1/3
f 261/1/3 254/1/3 260/1/3
f 262/5/3 247/5/3 259/5/3
f 263/5/3 247/5/3 262/5/3
f 264/5/3 247/5/3 263/5/3
f 265/5/3 247/5/3 264/5/3
f 270/5/3 267/5/3 266/5/3
f 271/5/3 267/5/3 270/5/3
f 273/1/3 269/1/3 268/1/3
f 274/1/3 269/1/3 273/1/3
f 276/1/3 275/1/3 274/1/3
f 277/1/3 275/1/3 276/1/3
f 278/1/3 275/1/3 277/1/3
f 279/1/3 275/1/3 278/1/3
f 284/5/3 280/5/3 279/5/3
f 285/5/3 280/5/3 284/5/3
f 288/1/3 283/1/3 282/1/3
f 288/1/3 282/1/3 281/1/3
f 288/1/3 284/1/3 283/1/3
f 289/1/3 284/1/3 288/1/3
f 290/1/3 284/1/3 289/1/3
f 291/5/3 286/5/3 285/5/3
f 292/5/3 286/5/3 291/5/3
f 294/1/3 288/1/3 287/1/3
f 294/1/3 289/1/3 288/1/3
f 295/1/3 289/1/3 294/1/3
f 296/8/3 293/8/3 292/8/3
f 296/8/3 292/8/3 291/8/3
f 297/8/3 293/8/3 296/8/3
f 300/5/3 272/5/3 271/5/3
f 301/5/3 272/5/3 300/5/3
f 302/5/3 298/5/3 297/5/3
f 303/5/3 298/5/3 302/5/3
f 304/5/3 300/5/3 299/5/3
f 305/5/3 300/5/3 304/5/3
f 308/1/3 307/1/3 306/1/3
f 309/1/3 307/1/3 308/1/3
f 315/5/3 311/5/3 310/5/3
f 316/5/3 311/5/3 315/5/3
f 317/8/3 314/8/3 313/8/3
f 317/3/3 313/3/3 312/3/3
f 318/8/3 314/8/3 317/8/3
f 321/3/3 317/3/3 312/3/3
f 322/3/3 317/3/3 321/3/3
f 325/5/3 320/5/3 319/5/3
f 326/5/3 320/5/3 325/5/3
f 327/1/3 324/1/3 323/1/3
f 328/1/3 324/1/3 327/1/3
f 331/1/3 330/1/3 329/1/3
f 332/1/3 330/1/3 331/1/3
f 337/9/3 334/9/3 333/9/3
f 338/9/3 334/9/3 337/9/3
f 339/5/3 336/5/3 335/5/3
f 340/5/3 336/5/3 339/5/3
f 343/5/3 342/5/3 341/5/3
f 344/5/3 342/5/3 343/5/3
f 348/3/3 346/3/3 345/3/3
f 348/8/3 347/8/3 346/8/3
f 349/8/3 347/8/3 348/8/3
f 350/3/3 348/3/3 345/3/3
f 351/3/3 348/3/3 350/3/3
f 354/5/3 353/5/3 352/5/3
f 355/5/3 353/5/3 354/5/3
f 356/3/4 357/3/4 359/3/4
f 357/8/4 358/8/4 359/8/4
f 359/8/4 358/8/4 360/8/4
f 356/3/4 359/3/4 361/3/4
f 361/3/4 359/3/4 362/3/4
f 363/5/4 364/5/4 365/5/4
f 365/5/4 364/5/4 366/5/4
f 367/9/4 368/9/4 369/9/4
f 369/9/4 368/9/4 370/9/4
f 371/1/4 372/1/4 373/1/4
f 373/1/4 372/1/4 374/1/4
f 375/1/4 376/1/4 377/1/4
f 377/1/4 376/1/4 378/1/4
f 379/5/4 380/5/4 384/5/4
f 384/5/4 380/5/4 385/5/4
f 382/8/4 383/8/4 386/8/4
f 381/3/4 382/3/4 386/3/4
f 386/8/4 383/8/4 387/8/4
f 381/3/4 386/3/4 390/3/4
f 390/3/4 386/3/4 391/3/4
f 388/5/4 389/5/4 394/5/4
f 394/5/4 389/5/4 395/5/4
f 392/1/4 393/1/4 396/1/4
f 396/1/4 393/1/4 397/1/4
f 398/5/4 399/5/4 403/5/4
f 403/5/4 399/5/4 404/5/4
f 400/1/4 401/1/4 406/1/4
f 406/1/4 401/1/4 407/1/4
f 402/5/4 403/5/4 409/5/4
f 409/5/4 403/5/4 410/5/4
f 407/1/4 408/1/4 411/1/4
f 411/1/4 408/1/4 412/1/4
f 412/1/4 408/1/4 413/1/4
f 413/1/4 408/1/4 414/1/4
f 414/5/4 415/5/4 419/5/4
f 419/5/4 415/5/4 420/5/4
f 417/1/4 418/1/4 423/1/4
f 416/1/4 417/1/4 423/1/4
f 418/1/4 419/1/4 423/1/4
f 423/1/4 419/1/4 424/1/4
f 424/1/4 419/1/4 425/1/4
f 420/5/4 421/5/4 426/5/4
f 426/5/4 421/5/4 427/5/4
f 422/1/4 423/1/4 429/1/4
f 423/1/4 424/1/4 429/1/4
f 429/1/4 424/1/4 430/1/4
f 426/8/4 427/8/4 431/8/4
f 427/8/4 428/8/4 431/8/4
f 431/8/4 428/8/4 432/8/4
f 404/5/4 405/5/4 433/5/4
f 433/5/4 405/5/4 434/5/4
f 432/5/4 433/5/4 435/5/4
f 435/5/4 433/5/4 436/5/4
f 437/5/4 438/5/4 442/5/4
f 439/1/4 440/1/4 443/1/4
f 439/1/4 443/1/4 447/1/4
f 443/1/4 444/1/4 447/1/4
f 447/1/4 444/1/4 448/1/4
f 445/1/4 446/1/4 449/1/4
f 449/1/4 446/1/4 450/1/4
f 441/5/4 442/5/4 451/5/4
f 442/5/4 438/5/4 452/5/4
f 451/5/4 442/5/4 452/5/4
f 439/1/4 447/1/4 453/1/4
f 453/1/4 447/1/4 454/1/4
f 452/5/4 438/5/4 455/5/4
f 455/5/4 438/5/4 456/5/4
f 456/5/4 438/5/4 457/5/4
f 457/5/4 438/5/4 458/5/4
f 459/8/4 460/8/4 462/8/4
f 460/1/4 461/1/4 463/1/4
f 462/8/4 460/8/4 463/8/4
f 463/1/4 461/1/4 464/1/4
f 467/3/5 466/3/5 465/3/5
f 468/3/5 466/3/5 467/3/5
f 471/3/5 470/3/5 469/3/5
f 472/3/5 470/3/5 471/3/5
f 476/1/5 474/1/5 473/1/5
f 477/1/5 474/1/5 476/1/5
f 479/7/5 477/7/5 476/7/5
f 480/7/5 477/7/5 479/7/5
f 481/7/5 479/7/5 476/7/5
f 482/7/5 477/7/5 480/7/5
f 483/7/5 481/7/5 476/7/5
f 483/7/5 482/7/5 481/7/5
f 484/7/5 477/7/5 482/7/5
f 484/7/5 482/7/5 483/7/5
f 485/7/5 483/7/5 476/7/5
f 486/7/5 477/7/5 484/7/5
f 487/1/5 476/1/5 475/1/5
f 488/7/5 486/7/5 485/7/5
f 488/1/5 476/1/5 487/1/5
f 488/7/5 485/7/5 476/7/5
f 489/1/5 478/1/5 477/1/5
f 489/7/5 486/7/5 488/7/5
f 489/7/5 477/7/5 486/7/5
f 490/1/5 478/1/5 489/1/5
f 491/1/5 489/1/5 488/1/5
f 492/1/5 489/1/5 491/1/5
f 495/8/5 494/8/5 493/8/5
f 496/8/5 494/8/5 495/8/5
f 499/8/5 498/8/5 497/8/5
f 500/8/5 498/8/5 499/8/5
f 503/5/5 502/5/5 501/5/5
f 504/5/5 502/5/5 503/5/5
f 507/5/5 503/5/5 501/5/5
f 508/5/5 503/5/5 507/5/5
f 509/5/5 505/5/5 504/5/5
f 510/8/5 506/8/5 505/8/5
f 510/5/5 505/5/5 509/5/5
f 511/8/5 506/8/5 510/8/5
f 512/8/5 506/8/5 511/8/5
f 513/5/5 507/5/5 501/5/5
f 516/8/5 506/8/5 512/8/5
f 517/5/5 514/5/5 513/5/5
f 517/5/5 513/5/5 501/5/5
f 518/5/5 514/5/5 517/5/5
f 519/5/5 514/5/5 518/5/5
f 520/5/5 516/5/5 515/5/5
f 521/8/5 506/8/5 516/8/5
f 521/5/5 516/5/5 520/5/5
f 522/8/5 506/8/5 521/8/5
f 523/5/5 519/5/5 518/5/5
f 523/5/5 520/5/5 519/5/5
f 524/5/5 520/5/5 523/5/5
f 529/5/5 526/5/5 525/5/5
f 530/5/5 526/5/5 529/5/5
f 531/5/5 528/5/5 527/5/5
f 532/5/5 528/5/5 531/5/5
f 536/5/5 533/5/5 532/5/5
f 537/5/5 533/5/5 536/5/5
f 538/5/5 535/5/5 534/5/5
f 539/5/5 535/5/5 538/5/5
f 542/9/5 541/9/5 540/9/5
f 543/9/5 541/9/5 542/9/5
f 546/5/5 545/5/5 544/5/5
f 547/5/5 545/5/5 546/5/5
f 549/5/5 548/5/5 547/5/5
f 550/5/5 548/5/5 549/5/5
f 551/5/5 548/5/5 550/5/5
f 552/5/5 548/5/5 551/5/5
f 555/5/5 554/5/5 553/5/5
f 556/5/5 554/5/5 555/5/5
f 558/5/5 554/5/5 556/5/5
f 559/5/5 554/5/5 558/5/5
f 560/5/5 558/5/5 557/5/5
f 561/5/5 558/5/5 560/5/5
f 564/5/5 563/5/5 562/5/5
f 565/5/5 563/5/5 564/5/5
f 568/5/5 567/5/5 566/5/5
f 569/5/5 567/5/5 568/5/5
f 572/5/5 571/5/5 570/5/5
f 573/5/5 571/5/5 572/5/5
f 574/3/6 575/3/6 576/3/6
f 576/3/6 575/3/6 577/3/6
f 578/3/6 579/3/6 580/3/6
f 580/3/6 579/3/6 581/3/6
f 582/1/6 583/1/6 587/1/6
f 587/1/6 583/1/6 588/1/6
f 584/1/6 585/1/6 589/1/6
f 589/1/6 585/1/6 590/1/6
f 586/1/6 587/1/6 591/1/6
f 591/1/6 587/1/6 592/1/6
f 593/1/6 594/1/6 595/1/6
f 595/1/6 594/1/6 596/1/6
f 596/1/6 597/1/6 600/1/6
f 600/1/6 597/1/6 601/1/6
f 598/1/6 599/1/6 602/1/6
f 602/1/6 599/1/6 603/1/6
f 604/1/6 605/1/6 608/1/6
f 608/1/6 605/1/6 609/1/6
f 606/1/6 607/1/6 610/1/6
f 610/1/6 607/1/6 611/1/6
f 612/1/6 613/1/6 614/1/6
f 614/1/6 613/1/6 615/1/6
f 616/1/6 617/1/6 618/1/6
f 618/1/6 617/1/6 619/1/6
f 620/1/6 621/1/6 622/1/6
f 622/1/6 621/1/6 623/1/6
f 624/1/6 625/1/6 626/1/6
f 626/1/6 625/1/6 627/1/6
f 628/1/6 629/1/6 630/1/6
f 630/1/6 629/1/6 631/1/6
f 632/1/6 633/1/6 634/1/6
f 634/1/6 633/1/6 635/1/6
f 636/1/6 637/1/6 639/1/6
f 639/1/6 637/1/6 640/1/6
f 638/1/6 639/1/6 642/1/6
f 642/1/6 639/1/6 643/1/6
f 640/1/6 641/1/6 644/1/6
f 644/1/6 641/1/6 645/1/6
f 646/1/6 647/1/6 650/1/6
f 650/1/6 647/1/6 651/1/6
f 648/1/6 649/1/6 652/1/6
f 652/1/6 649/1/6 653/1/6
f 651/1/6 652/1/6 654/1/6
f 654/1/6 652/1/6 655/1/6
f 656/9/6 657/9/6 658/9/6
f 658/9/6 657/9/6 659/9/6
f 660/5/6 661/5/6 662/5/6
f 662/5/6 661/5/6 663/5/6
f 664/5/6 665/5/6 667/5/6
f 667/5/6 665/5/6 668/5/6
f 666/5/6 667/5/6 670/5/6
f 670/5/6 667/5/6 671/5/6
f 668/5/6 669/5/6 672/5/6
f 672/5/6 669/5/6 673/5/6
f 671/5/6 672/5/6 674/5/6
f 674/5/6 672/5/6 675/5/6
f 676/5/6 677/5/6 678/5/6
f 678/5/6 677/5/6 679/5/6
