# MagicaVoxel @ Ephtracy

# group
o 

# material
mtllib brown_girl.mtl
usemtl palette

# normals
vn -1 0 0
vn 1 0 0
vn 0 0 1
vn 0 0 -1
vn 0 -1 0
vn 0 1 0

# texcoords
vt 0.00195313 0.5
vt 0.00976563 0.5
vt 0.0136719 0.5
vt 0.0175781 0.5
vt 0.0214844 0.5
vt 0.0253906 0.5
vt 0.0332031 0.5
vt 0.0449219 0.5
vt 0.0839844 0.5
vt 0.103516 0.5
vt 0.169922 0.5
vt 0.201172 0.5

# verts
v -0.4 2.6 0.4
v -0.4 2.6 -0.4
v -0.4 3.4 0.4
v -0.4 3.4 -0.4
v -0.3 0.7 0.4
v -0.3 0.7 -0.4
v -0.3 1 0.4
v -0.3 1 0.3
v -0.3 1 -0.3
v -0.3 1 -0.4
v -0.3 1.1 0.3
v -0.3 1.1 0.2
v -0.3 1.1 -0.2
v -0.3 1.1 -0.3
v -0.3 1.2 0.2
v -0.3 1.2 -0.2
v -0.3 2.5 0.5
v -0.3 2.5 -0.4
v -0.3 2.6 0.4
v -0.3 2.6 -0.4
v -0.3 2.6 -0.5
v -0.3 3.4 0.5
v -0.3 3.4 0.4
v -0.3 3.4 -0.4
v -0.3 3.4 -0.5
v -0.3 3.5 0.4
v -0.3 3.5 -0.4
v -0.2 0.7 0.5
v -0.2 0.7 0.4
v -0.2 0.7 -0.4
v -0.2 0.7 -0.5
v -0.2 1 0.5
v -0.2 1 0.4
v -0.2 1 0.3
v -0.2 1 -0.3
v -0.2 1 -0.4
v -0.2 1 -0.5
v -0.2 1.1 0.3
v -0.2 1.1 0.2
v -0.2 1.1 -0.2
v -0.2 1.1 -0.3
v -0.2 1.2 0.2
v -0.2 1.2 -0.2
v -0.2 2.4 0.4
v -0.2 2.4 0.3
v -0.2 2.4 -0.3
v -0.2 2.4 -0.4
v -0.2 2.5 0.3
v -0.2 2.5 -0.3
v -0.2 2.5 -0.4
v -0.2 2.5 -0.5
v -0.2 2.6 -0.4
v -0.2 2.6 -0.5
v -0.1 0 0.3
v -0.1 0 0.1
v -0.1 0 -0.1
v -0.1 0 -0.3
v -0.1 0.2 0.3
v -0.1 0.2 0.1
v -0.1 0.2 -0.1
v -0.1 0.2 -0.3
v -0.1 0.7 0.3
v -0.1 0.7 0.1
v -0.1 0.7 -0.1
v -0.1 0.7 -0.3
v -0.1 1 0.5
v -0.1 1 0.4
v -0.1 1 -0.4
v -0.1 1 -0.5
v -0.1 1.1 0.6
v -0.1 1.1 0.5
v -0.1 1.1 0.4
v -0.1 1.1 -0.4
v -0.1 1.1 -0.5
v -0.1 1.1 -0.6
v -0.1 1.3 0.6
v -0.1 1.3 0.4
v -0.1 1.3 -0.4
v -0.1 1.3 -0.6
v -0.1 2.3 0.6
v -0.1 2.3 0.5
v -0.1 2.3 -0.5
v -0.1 2.3 -0.6
v -0.1 2.4 0.5
v -0.1 2.4 0.4
v -0.1 2.4 0.3
v -0.1 2.4 -0.3
v -0.1 2.4 -0.4
v -0.1 2.4 -0.5
v -0.1 2.5 0.4
v -0.1 2.5 0.3
v -0.1 2.5 -0.3
v -0.1 2.5 -0.4
v 0.1 0.2 0.3
v 0.1 0.2 0.1
v 0.1 0.2 -0.1
v 0.1 0.2 -0.3
v 0.1 0.7 0.3
v 0.1 0.7 0.1
v 0.1 0.7 -0.1
v 0.1 0.7 -0.3
v 0.1 1 0.5
v 0.1 1 0.4
v 0.1 1 -0.4
v 0.1 1 -0.5
v 0.1 1.1 0.6
v 0.1 1.1 0.5
v 0.1 1.1 0.4
v 0.1 1.1 -0.4
v 0.1 1.1 -0.5
v 0.1 1.1 -0.6
v 0.1 1.3 0.6
v 0.1 1.3 0.4
v 0.1 1.3 -0.4
v 0.1 1.3 -0.6
v 0.1 2.3 0.6
v 0.1 2.3 0.5
v 0.1 2.3 -0.5
v 0.1 2.3 -0.6
v 0.1 2.4 0.5
v 0.1 2.4 0.4
v 0.1 2.4 0.3
v 0.1 2.4 -0.3
v 0.1 2.4 -0.4
v 0.1 2.4 -0.5
v 0.1 2.5 0.5
v 0.1 2.5 0.4
v 0.1 2.5 0.3
v 0.1 2.5 -0.3
v 0.1 2.5 -0.4
v 0.1 2.5 -0.5
v 0.1 2.6 0.5
v 0.1 2.6 0.4
v 0.1 2.6 -0.4
v 0.1 2.6 -0.5
v 0.2 0 0.3
v 0.2 0 0.1
v 0.2 0 -0.1
v 0.2 0 -0.3
v 0.2 0.2 0.3
v 0.2 0.2 0.1
v 0.2 0.2 -0.1
v 0.2 0.2 -0.3
v 0.2 0.7 0.5
v 0.2 0.7 0.4
v 0.2 0.7 -0.4
v 0.2 0.7 -0.5
v 0.2 1 0.5
v 0.2 1 0.4
v 0.2 1 -0.4
v 0.2 1 -0.5
v 0.2 1.1 0.4
v 0.2 1.1 0.3
v 0.2 1.1 -0.3
v 0.2 1.1 -0.4
v 0.2 1.3 0.3
v 0.2 1.3 -0.3
v 0.2 2.3 0.1
v 0.2 2.3 -0.1
v 0.2 2.4 0.4
v 0.2 2.4 0.3
v 0.2 2.4 0.2
v 0.2 2.4 0.1
v 0.2 2.4 -0.1
v 0.2 2.4 -0.2
v 0.2 2.4 -0.3
v 0.2 2.4 -0.4
v 0.2 2.5 0.3
v 0.2 2.5 0.2
v 0.2 2.5 -0.2
v 0.2 2.5 -0.3
v 0.2 2.6 0.5
v 0.2 2.6 0.4
v 0.2 2.6 -0.4
v 0.2 2.6 -0.5
v 0.2 3 0.5
v 0.2 3 0.4
v 0.2 3 -0.4
v 0.2 3 -0.5
v 0.3 0.7 0.4
v 0.3 0.7 -0.4
v 0.3 1.1 0.4
v 0.3 1.1 0.3
v 0.3 1.1 -0.3
v 0.3 1.1 -0.4
v 0.3 1.3 0.3
v 0.3 1.3 -0.3
v 0.3 2.5 0.4
v 0.3 2.5 -0.4
v 0.3 2.6 0.1
v 0.3 2.6 -0.1
v 0.3 2.7 0.1
v 0.3 2.7 -0.1
v 0.3 2.8 0.3
v 0.3 2.8 0.2
v 0.3 2.8 0.1
v 0.3 2.8 -0.1
v 0.3 2.8 -0.2
v 0.3 2.8 -0.3
v 0.3 3 0.5
v 0.3 3 0.4
v 0.3 3 0.3
v 0.3 3 0.2
v 0.3 3 0.1
v 0.3 3 -0.1
v 0.3 3 -0.2
v 0.3 3 -0.3
v 0.3 3 -0.4
v 0.3 3 -0.5
v 0.3 3.1 0.4
v 0.3 3.1 0.1
v 0.3 3.1 5.96046e-008
v 0.3 3.1 -0.1
v 0.3 3.2 0.1
v 0.3 3.2 5.96046e-008
v 0.3 3.3 0.4
v 0.3 3.3 0.1
v 0.3 3.4 0.5
v 0.3 3.4 0.4
v 0.3 3.4 -0.4
v 0.3 3.4 -0.5
v 0.3 3.5 0.4
v 0.3 3.5 -0.4
v 0.4 2.8 0.1
v 0.4 2.8 -0.1
v 0.4 3 0.4
v 0.4 3 0.1
v 0.4 3 -0.1
v 0.4 3 -0.4
v 0.4 3.1 0.4
v 0.4 3.1 0.1
v 0.4 3.1 5.96046e-008
v 0.4 3.1 -0.1
v 0.4 3.2 0.1
v 0.4 3.2 5.96046e-008
v 0.4 3.3 0.4
v 0.4 3.3 0.1
v 0.4 3.4 0.4
v 0.4 3.4 -0.4
v -0.1 1.1 0.6
v -0.1 1.3 0.6
v -0.1 2.3 0.6
v 0.1 1.1 0.6
v 0.1 1.3 0.6
v 0.1 2.3 0.6
v -0.3 2.5 0.5
v -0.3 3.4 0.5
v -0.2 0.7 0.5
v -0.2 1 0.5
v -0.1 1 0.5
v -0.1 1.1 0.5
v -0.1 2.3 0.5
v -0.1 2.4 0.5
v 0.1 1 0.5
v 0.1 1.1 0.5
v 0.1 2.3 0.5
v 0.1 2.4 0.5
v 0.1 2.5 0.5
v 0.1 2.6 0.5
v 0.2 0.7 0.5
v 0.2 1 0.5
v 0.2 2.6 0.5
v 0.2 3 0.5
v 0.3 3 0.5
v 0.3 3.4 0.5
v -0.4 2.6 0.4
v -0.4 3.4 0.4
v -0.3 0.7 0.4
v -0.3 1 0.4
v -0.3 2.6 0.4
v -0.3 3.4 0.4
v -0.3 3.5 0.4
v -0.2 0.7 0.4
v -0.2 1 0.4
v -0.2 2.4 0.4
v -0.1 1 0.4
v -0.1 1.1 0.4
v -0.1 1.3 0.4
v -0.1 2.4 0.4
v -0.1 2.5 0.4
v 0.1 1 0.4
v 0.1 1.1 0.4
v 0.1 1.3 0.4
v 0.1 2.4 0.4
v 0.1 2.5 0.4
v 0.1 2.6 0.4
v 0.2 0.7 0.4
v 0.2 1 0.4
v 0.2 1.1 0.4
v 0.2 2.4 0.4
v 0.2 2.5 0.4
v 0.2 2.6 0.4
v 0.2 3 0.4
v 0.3 0.7 0.4
v 0.3 1.1 0.4
v 0.3 2.5 0.4
v 0.3 3 0.4
v 0.3 3.1 0.4
v 0.3 3.3 0.4
v 0.3 3.4 0.4
v 0.3 3.5 0.4
v 0.4 3 0.4
v 0.4 3.1 0.4
v 0.4 3.3 0.4
v 0.4 3.4 0.4
v -0.3 1 0.3
v -0.3 1.1 0.3
v -0.2 1 0.3
v -0.2 1.1 0.3
v -0.2 2.4 0.3
v -0.2 2.5 0.3
v -0.1 0 0.3
v -0.1 0.2 0.3
v -0.1 0.7 0.3
v -0.1 2.4 0.3
v -0.1 2.5 0.3
v 0.1 0.2 0.3
v 0.1 0.7 0.3
v 0.1 2.4 0.3
v 0.1 2.5 0.3
v 0.2 0 0.3
v 0.2 0.2 0.3
v 0.2 1.1 0.3
v 0.2 1.3 0.3
v 0.2 2.4 0.3
v 0.2 2.5 0.3
v 0.3 1.1 0.3
v 0.3 1.3 0.3
v -0.3 1.1 0.2
v -0.3 1.2 0.2
v -0.2 1.1 0.2
v -0.2 1.2 0.2
v 0.3 2.8 0.1
v 0.3 3 0.1
v 0.3 3.2 0.1
v 0.3 3.3 0.1
v 0.4 2.8 0.1
v 0.4 3 0.1
v 0.4 3.2 0.1
v 0.4 3.3 0.1
v 0.3 3.1 5.96046e-008
v 0.3 3.2 5.96046e-008
v 0.4 3.1 5.96046e-008
v 0.4 3.2 5.96046e-008
v -0.1 0 -0.1
v -0.1 0.2 -0.1
v -0.1 0.7 -0.1
v 0.1 0.2 -0.1
v 0.1 0.7 -0.1
v 0.2 0 -0.1
v 0.2 0.2 -0.1
v 0.3 3 -0.1
v 0.3 3.1 -0.1
v 0.4 3 -0.1
v 0.4 3.1 -0.1
v -0.1 0 0.1
v -0.1 0.2 0.1
v -0.1 0.7 0.1
v 0.1 0.2 0.1
v 0.1 0.7 0.1
v 0.2 0 0.1
v 0.2 0.2 0.1
v 0.3 3 0.1
v 0.3 3.1 0.1
v 0.4 3 0.1
v 0.4 3.1 0.1
v 0.3 2.8 -0.1
v 0.3 3 -0.1
v 0.4 2.8 -0.1
v 0.4 3 -0.1
v -0.3 1.1 -0.2
v -0.3 1.2 -0.2
v -0.2 1.1 -0.2
v -0.2 1.2 -0.2
v -0.3 1 -0.3
v -0.3 1.1 -0.3
v -0.2 1 -0.3
v -0.2 1.1 -0.3
v -0.2 2.4 -0.3
v -0.2 2.5 -0.3
v -0.1 0 -0.3
v -0.1 0.2 -0.3
v -0.1 0.7 -0.3
v -0.1 2.4 -0.3
v -0.1 2.5 -0.3
v 0.1 0.2 -0.3
v 0.1 0.7 -0.3
v 0.1 2.4 -0.3
v 0.1 2.5 -0.3
v 0.2 0 -0.3
v 0.2 0.2 -0.3
v 0.2 1.1 -0.3
v 0.2 1.3 -0.3
v 0.2 2.4 -0.3
v 0.2 2.5 -0.3
v 0.3 1.1 -0.3
v 0.3 1.3 -0.3
v -0.4 2.6 -0.4
v -0.4 3.4 -0.4
v -0.3 0.7 -0.4
v -0.3 1 -0.4
v -0.3 2.5 -0.4
v -0.3 2.6 -0.4
v -0.3 3.4 -0.4
v -0.3 3.5 -0.4
v -0.2 0.7 -0.4
v -0.2 1 -0.4
v -0.2 2.4 -0.4
v -0.2 2.5 -0.4
v -0.2 2.6 -0.4
v -0.1 1 -0.4
v -0.1 1.1 -0.4
v -0.1 1.3 -0.4
v -0.1 2.4 -0.4
v -0.1 2.5 -0.4
v 0.1 1 -0.4
v 0.1 1.1 -0.4
v 0.1 1.3 -0.4
v 0.1 2.4 -0.4
v 0.1 2.5 -0.4
v 0.1 2.6 -0.4
v 0.2 0.7 -0.4
v 0.2 1 -0.4
v 0.2 1.1 -0.4
v 0.2 2.4 -0.4
v 0.2 2.5 -0.4
v 0.2 2.6 -0.4
v 0.2 3 -0.4
v 0.3 0.7 -0.4
v 0.3 1.1 -0.4
v 0.3 2.5 -0.4
v 0.3 3 -0.4
v 0.3 3.4 -0.4
v 0.3 3.5 -0.4
v 0.4 3 -0.4
v 0.4 3.4 -0.4
v -0.3 2.6 -0.5
v -0.3 3.4 -0.5
v -0.2 0.7 -0.5
v -0.2 1 -0.5
v -0.2 2.5 -0.5
v -0.2 2.6 -0.5
v -0.1 1 -0.5
v -0.1 1.1 -0.5
v -0.1 2.3 -0.5
v -0.1 2.4 -0.5
v 0.1 1 -0.5
v 0.1 1.1 -0.5
v 0.1 2.3 -0.5
v 0.1 2.4 -0.5
v 0.1 2.5 -0.5
v 0.1 2.6 -0.5
v 0.2 0.7 -0.5
v 0.2 1 -0.5
v 0.2 2.6 -0.5
v 0.2 3 -0.5
v 0.3 3 -0.5
v 0.3 3.4 -0.5
v -0.1 1.1 -0.6
v -0.1 1.3 -0.6
v -0.1 2.3 -0.6
v 0.1 1.1 -0.6
v 0.1 1.3 -0.6
v 0.1 2.3 -0.6
v -0.1 0 0.3
v 0.2 0 0.3
v -0.1 0 0.1
v 0.2 0 0.1
v -0.1 0 -0.1
v 0.2 0 -0.1
v -0.1 0 -0.3
v 0.2 0 -0.3
v -0.2 0.7 0.5
v 0.2 0.7 0.5
v -0.3 0.7 0.4
v -0.2 0.7 0.4
v 0.2 0.7 0.4
v 0.3 0.7 0.4
v -0.1 0.7 0.3
v 0.1 0.7 0.3
v -0.1 0.7 0.1
v 0.1 0.7 0.1
v -0.1 0.7 -0.1
v 0.1 0.7 -0.1
v -0.1 0.7 -0.3
v 0.1 0.7 -0.3
v -0.3 0.7 -0.4
v -0.2 0.7 -0.4
v 0.2 0.7 -0.4
v 0.3 0.7 -0.4
v -0.2 0.7 -0.5
v 0.2 0.7 -0.5
v -0.1 1.1 0.6
v 0.1 1.1 0.6
v -0.1 1.1 0.5
v 0.1 1.1 0.5
v -0.1 1.1 -0.5
v 0.1 1.1 -0.5
v -0.1 1.1 -0.6
v 0.1 1.1 -0.6
v -0.3 2.5 0.5
v 0.1 2.5 0.5
v -0.1 2.5 0.4
v 0.1 2.5 0.4
v 0.2 2.5 0.4
v 0.3 2.5 0.4
v -0.2 2.5 0.3
v -0.1 2.5 0.3
v 0.1 2.5 0.3
v 0.2 2.5 0.3
v 0.2 2.5 0.2
v 0.2 2.5 -0.2
v -0.2 2.5 -0.3
v -0.1 2.5 -0.3
v 0.1 2.5 -0.3
v 0.2 2.5 -0.3
v -0.3 2.5 -0.4
v -0.2 2.5 -0.4
v -0.1 2.5 -0.4
v 0.1 2.5 -0.4
v 0.2 2.5 -0.4
v 0.3 2.5 -0.4
v -0.2 2.5 -0.5
v 0.1 2.5 -0.5
v 0.1 2.6 0.5
v 0.2 2.6 0.5
v -0.4 2.6 0.4
v -0.3 2.6 0.4
v 0.1 2.6 0.4
v 0.2 2.6 0.4
v -0.4 2.6 -0.4
v -0.3 2.6 -0.4
v -0.2 2.6 -0.4
v 0.1 2.6 -0.4
v 0.2 2.6 -0.4
v -0.3 2.6 -0.5
v -0.2 2.6 -0.5
v 0.1 2.6 -0.5
v 0.2 2.6 -0.5
v 0.3 2.8 0.1
v 0.4 2.8 0.1
v 0.3 2.8 -0.1
v 0.4 2.8 -0.1
v 0.2 3 0.5
v 0.3 3 0.5
v 0.2 3 0.4
v 0.3 3 0.4
v 0.4 3 0.4
v 0.3 3 0.3
v 0.3 3 0.2
v 0.3 3 0.1
v 0.4 3 0.1
v 0.3 3 -0.1
v 0.4 3 -0.1
v 0.3 3 -0.2
v 0.3 3 -0.3
v 0.2 3 -0.4
v 0.3 3 -0.4
v 0.4 3 -0.4
v 0.2 3 -0.5
v 0.3 3 -0.5
v 0.3 3.1 5.96046e-008
v 0.4 3.1 5.96046e-008
v 0.3 3.1 -0.1
v 0.4 3.1 -0.1
v 0.3 3.2 0.1
v 0.4 3.2 0.1
v 0.3 3.2 5.96046e-008
v 0.4 3.2 5.96046e-008
v 0.3 3.3 0.4
v 0.4 3.3 0.4
v 0.3 3.3 0.1
v 0.4 3.3 0.1
v 0.1 0.2 0.3
v 0.2 0.2 0.3
v 0.1 0.2 0.1
v 0.2 0.2 0.1
v 0.1 0.2 -0.1
v 0.2 0.2 -0.1
v 0.1 0.2 -0.3
v 0.2 0.2 -0.3
v -0.2 1 0.5
v -0.1 1 0.5
v 0.1 1 0.5
v 0.2 1 0.5
v -0.3 1 0.4
v -0.2 1 0.4
v -0.1 1 0.4
v 0.1 1 0.4
v 0.2 1 0.4
v -0.3 1 0.3
v -0.2 1 0.3
v -0.3 1 -0.3
v -0.2 1 -0.3
v -0.3 1 -0.4
v -0.2 1 -0.4
v -0.1 1 -0.4
v 0.1 1 -0.4
v 0.2 1 -0.4
v -0.2 1 -0.5
v -0.1 1 -0.5
v 0.1 1 -0.5
v 0.2 1 -0.5
v 0.2 1.1 0.4
v 0.3 1.1 0.4
v -0.3 1.1 0.3
v -0.2 1.1 0.3
v 0.2 1.1 0.3
v 0.3 1.1 0.3
v -0.3 1.1 0.2
v -0.2 1.1 0.2
v -0.3 1.1 -0.2
v -0.2 1.1 -0.2
v -0.3 1.1 -0.3
v -0.2 1.1 -0.3
v 0.2 1.1 -0.3
v 0.3 1.1 -0.3
v 0.2 1.1 -0.4
v 0.3 1.1 -0.4
v -0.3 1.2 0.2
v -0.2 1.2 0.2
v -0.3 1.2 -0.2
v -0.2 1.2 -0.2
v 0.2 1.3 0.3
v 0.3 1.3 0.3
v 0.2 1.3 -0.3
v 0.3 1.3 -0.3
v -0.1 2.3 0.6
v 0.1 2.3 0.6
v -0.1 2.3 0.5
v 0.1 2.3 0.5
v -0.1 2.3 -0.5
v 0.1 2.3 -0.5
v -0.1 2.3 -0.6
v 0.1 2.3 -0.6
v -0.1 2.4 0.5
v 0.1 2.4 0.5
v -0.2 2.4 0.4
v -0.1 2.4 0.4
v 0.1 2.4 0.4
v 0.2 2.4 0.4
v -0.2 2.4 0.3
v -0.1 2.4 0.3
v 0.1 2.4 0.3
v 0.2 2.4 0.3
v -0.2 2.4 -0.3
v -0.1 2.4 -0.3
v 0.1 2.4 -0.3
v 0.2 2.4 -0.3
v -0.2 2.4 -0.4
v -0.1 2.4 -0.4
v 0.1 2.4 -0.4
v 0.2 2.4 -0.4
v -0.1 2.4 -0.5
v 0.1 2.4 -0.5
v 0.3 3 0.1
v 0.4 3 0.1
v 0.3 3 -0.1
v 0.4 3 -0.1
v 0.3 3.1 0.4
v 0.4 3.1 0.4
v 0.3 3.1 0.1
v 0.4 3.1 0.1
v -0.3 3.4 0.5
v 0.3 3.4 0.5
v -0.4 3.4 0.4
v -0.3 3.4 0.4
v 0.3 3.4 0.4
v 0.4 3.4 0.4
v -0.4 3.4 -0.4
v -0.3 3.4 -0.4
v 0.3 3.4 -0.4
v 0.4 3.4 -0.4
v -0.3 3.4 -0.5
v 0.3 3.4 -0.5
v -0.3 3.5 0.4
v 0.3 3.5 0.4
v -0.3 3.5 -0.4
v 0.3 3.5 -0.4

# faces
f 3/1/1 2/1/1 1/1/1
f 4/1/1 2/1/1 3/1/1
f 7/8/1 6/8/1 5/8/1
f 8/8/1 6/8/1 7/8/1
f 9/8/1 6/8/1 8/8/1
f 10/8/1 6/8/1 9/8/1
f 11/8/1 9/8/1 8/8/1
f 12/8/1 9/8/1 11/8/1
f 13/8/1 9/8/1 12/8/1
f 14/8/1 9/8/1 13/8/1
f 15/8/1 13/8/1 12/8/1
f 16/8/1 13/8/1 15/8/1
f 19/1/1 18/1/1 17/1/1
f 20/1/1 18/1/1 19/1/1
f 22/1/1 19/1/1 17/1/1
f 23/1/1 19/1/1 22/1/1
f 24/1/1 21/1/1 20/1/1
f 25/1/1 21/1/1 24/1/1
f 26/1/1 24/1/1 23/1/1
f 27/1/1 24/1/1 26/1/1
f 32/8/1 29/8/1 28/8/1
f 33/8/1 29/8/1 32/8/1
f 36/8/1 31/8/1 30/8/1
f 37/8/1 31/8/1 36/8/1
f 38/8/1 34/8/1 33/8/1
f 41/8/1 36/8/1 35/8/1
f 42/8/1 39/8/1 38/8/1
f 43/8/1 41/8/1 40/8/1
f 44/8/1 42/8/1 38/8/1
f 44/8/1 43/8/1 42/8/1
f 44/8/1 38/8/1 33/8/1
f 45/8/1 43/8/1 44/8/1
f 46/8/1 41/8/1 43/8/1
f 46/8/1 43/8/1 45/8/1
f 46/8/1 36/8/1 41/8/1
f 47/8/1 36/8/1 46/8/1
f 48/1/1 46/1/1 45/1/1
f 49/1/1 46/1/1 48/1/1
f 52/1/1 51/1/1 50/1/1
f 53/1/1 51/1/1 52/1/1
f 58/4/1 55/4/1 54/4/1
f 59/4/1 55/4/1 58/4/1
f 60/4/1 57/4/1 56/4/1
f 61/4/1 57/4/1 60/4/1
f 62/7/1 59/7/1 58/7/1
f 63/7/1 59/7/1 62/7/1
f 64/7/1 61/7/1 60/7/1
f 65/7/1 61/7/1 64/7/1
f 71/8/1 67/8/1 66/8/1
f 72/8/1 67/8/1 71/8/1
f 73/8/1 69/8/1 68/8/1
f 74/8/1 69/8/1 73/8/1
f 76/7/1 72/7/1 71/7/1
f 76/7/1 71/7/1 70/7/1
f 77/7/1 72/7/1 76/7/1
f 78/7/1 75/7/1 74/7/1
f 78/7/1 74/7/1 73/7/1
f 79/7/1 75/7/1 78/7/1
f 80/8/1 77/8/1 76/8/1
f 81/8/1 77/8/1 80/8/1
f 82/8/1 79/8/1 78/8/1
f 83/8/1 79/8/1 82/8/1
f 84/8/1 77/8/1 81/8/1
f 85/8/1 77/8/1 84/8/1
f 88/8/1 82/8/1 78/8/1
f 89/8/1 82/8/1 88/8/1
f 90/1/1 86/1/1 85/1/1
f 91/1/1 86/1/1 90/1/1
f 92/1/1 88/1/1 87/1/1
f 93/1/1 88/1/1 92/1/1
f 94/7/2 95/7/2 98/7/2
f 98/7/2 95/7/2 99/7/2
f 96/7/2 97/7/2 100/7/2
f 100/7/2 97/7/2 101/7/2
f 102/8/2 103/8/2 107/8/2
f 107/8/2 103/8/2 108/8/2
f 104/8/2 105/8/2 109/8/2
f 109/8/2 105/8/2 110/8/2
f 107/7/2 108/7/2 112/7/2
f 106/7/2 107/7/2 112/7/2
f 112/7/2 108/7/2 113/7/2
f 110/7/2 111/7/2 114/7/2
f 109/7/2 110/7/2 114/7/2
f 114/7/2 111/7/2 115/7/2
f 112/8/2 113/8/2 116/8/2
f 116/8/2 113/8/2 117/8/2
f 114/8/2 115/8/2 118/8/2
f 118/8/2 115/8/2 119/8/2
f 117/8/2 113/8/2 120/8/2
f 120/8/2 113/8/2 121/8/2
f 114/8/2 118/8/2 124/8/2
f 124/8/2 118/8/2 125/8/2
f 121/1/2 122/1/2 127/1/2
f 127/1/2 122/1/2 128/1/2
f 123/1/2 124/1/2 129/1/2
f 129/1/2 124/1/2 130/1/2
f 126/1/2 127/1/2 132/1/2
f 132/1/2 127/1/2 133/1/2
f 130/1/2 131/1/2 134/1/2
f 134/1/2 131/1/2 135/1/2
f 136/4/2 137/4/2 140/4/2
f 140/4/2 137/4/2 141/4/2
f 138/4/2 139/4/2 142/4/2
f 142/4/2 139/4/2 143/4/2
f 144/8/2 145/8/2 148/8/2
f 148/8/2 145/8/2 149/8/2
f 146/8/2 147/8/2 150/8/2
f 150/8/2 147/8/2 151/8/2
f 152/8/2 153/8/2 156/8/2
f 154/8/2 155/8/2 157/8/2
f 156/8/2 157/8/2 158/8/2
f 158/8/2 157/8/2 159/8/2
f 152/8/2 156/8/2 160/8/2
f 156/8/2 158/8/2 160/8/2
f 160/8/2 158/8/2 161/8/2
f 161/8/2 158/8/2 162/8/2
f 158/7/2 159/7/2 163/7/2
f 162/8/2 158/8/2 163/8/2
f 159/8/2 157/8/2 164/8/2
f 163/7/2 159/7/2 164/7/2
f 164/8/2 157/8/2 165/8/2
f 157/8/2 155/8/2 166/8/2
f 165/8/2 157/8/2 166/8/2
f 166/8/2 155/8/2 167/8/2
f 161/1/2 162/1/2 168/1/2
f 162/7/2 163/7/2 169/7/2
f 168/1/2 162/1/2 169/1/2
f 164/7/2 165/7/2 169/7/2
f 163/7/2 164/7/2 169/7/2
f 165/1/2 166/1/2 170/1/2
f 169/7/2 165/7/2 170/7/2
f 170/1/2 166/1/2 171/1/2
f 172/1/2 173/1/2 176/1/2
f 176/1/2 173/1/2 177/1/2
f 174/1/2 175/1/2 178/1/2
f 178/1/2 175/1/2 179/1/2
f 180/8/2 181/8/2 182/8/2
f 182/8/2 181/8/2 183/8/2
f 183/8/2 181/8/2 184/8/2
f 184/8/2 181/8/2 185/8/2
f 183/8/2 184/8/2 186/8/2
f 186/8/2 184/8/2 187/8/2
f 188/7/2 189/7/2 190/7/2
f 190/7/2 189/7/2 191/7/2
f 188/7/2 190/7/2 192/7/2
f 190/9/2 191/9/2 192/9/2
f 191/7/2 189/7/2 193/7/2
f 192/9/2 191/9/2 193/9/2
f 188/7/2 192/7/2 194/7/2
f 192/7/2 193/7/2 194/7/2
f 194/7/2 193/7/2 195/7/2
f 195/7/2 193/7/2 196/7/2
f 193/7/2 189/7/2 197/7/2
f 196/7/2 193/7/2 197/7/2
f 197/7/2 189/7/2 198/7/2
f 198/7/2 189/7/2 199/7/2
f 188/7/2 194/7/2 201/7/2
f 194/5/2 195/5/2 202/5/2
f 201/7/2 194/7/2 202/7/2
f 195/7/2 196/7/2 203/7/2
f 202/5/2 195/5/2 203/5/2
f 203/7/2 196/7/2 204/7/2
f 197/7/2 198/7/2 205/7/2
f 198/5/2 199/5/2 206/5/2
f 205/7/2 198/7/2 206/7/2
f 199/7/2 189/7/2 207/7/2
f 206/5/2 199/5/2 207/5/2
f 207/7/2 189/7/2 208/7/2
f 200/1/2 201/1/2 210/1/2
f 204/7/2 205/7/2 211/7/2
f 211/7/2 205/7/2 212/7/2
f 212/7/2 205/7/2 213/7/2
f 210/7/2 211/7/2 214/7/2
f 211/7/2 212/7/2 214/7/2
f 214/7/2 212/7/2 215/7/2
f 200/1/2 210/1/2 216/1/2
f 210/7/2 214/7/2 216/7/2
f 216/7/2 214/7/2 217/7/2
f 200/1/2 216/1/2 218/1/2
f 218/1/2 216/1/2 219/1/2
f 208/1/2 209/1/2 220/1/2
f 220/1/2 209/1/2 221/1/2
f 219/1/2 220/1/2 222/1/2
f 222/1/2 220/1/2 223/1/2
f 224/3/2 225/3/2 227/3/2
f 227/3/2 225/3/2 228/3/2
f 226/1/2 227/1/2 230/1/2
f 230/1/2 227/1/2 231/1/2
f 228/1/2 229/1/2 233/1/2
f 232/1/2 233/1/2 235/1/2
f 234/1/2 235/1/2 237/1/2
f 236/1/2 237/1/2 238/1/2
f 233/1/2 229/1/2 239/1/2
f 238/1/2 237/1/2 239/1/2
f 235/1/2 233/1/2 239/1/2
f 237/1/2 235/1/2 239/1/2
f 243/7/3 241/7/3 240/7/3
f 244/8/3 242/8/3 241/8/3
f 244/7/3 241/7/3 243/7/3
f 245/8/3 242/8/3 244/8/3
f 250/8/3 249/8/3 248/8/3
f 254/8/3 250/8/3 248/8/3
f 254/8/3 251/8/3 250/8/3
f 255/8/3 251/8/3 254/8/3
f 256/8/3 253/8/3 252/8/3
f 257/8/3 253/8/3 256/8/3
f 258/1/3 247/1/3 246/1/3
f 259/1/3 247/1/3 258/1/3
f 260/8/3 254/8/3 248/8/3
f 261/8/3 254/8/3 260/8/3
f 262/1/3 247/1/3 259/1/3
f 263/1/3 247/1/3 262/1/3
f 264/1/3 247/1/3 263/1/3
f 265/1/3 247/1/3 264/1/3
f 270/1/3 267/1/3 266/1/3
f 271/1/3 267/1/3 270/1/3
f 273/8/3 269/8/3 268/8/3
f 274/8/3 269/8/3 273/8/3
f 276/8/3 275/8/3 274/8/3
f 277/8/3 275/8/3 276/8/3
f 278/8/3 275/8/3 277/8/3
f 279/8/3 275/8/3 278/8/3
f 284/1/3 280/1/3 279/1/3
f 285/1/3 280/1/3 284/1/3
f 288/8/3 283/8/3 282/8/3
f 288/8/3 282/8/3 281/8/3
f 288/8/3 284/8/3 283/8/3
f 289/8/3 284/8/3 288/8/3
f 290/8/3 284/8/3 289/8/3
f 291/1/3 286/1/3 285/1/3
f 292/1/3 286/1/3 291/1/3
f 294/8/3 288/8/3 287/8/3
f 294/8/3 289/8/3 288/8/3
f 295/8/3 289/8/3 294/8/3
f 296/7/3 293/7/3 292/7/3
f 296/7/3 292/7/3 291/7/3
f 297/7/3 293/7/3 296/7/3
f 300/1/3 272/1/3 271/1/3
f 301/1/3 272/1/3 300/1/3
f 302/1/3 298/1/3 297/1/3
f 303/1/3 298/1/3 302/1/3
f 304/1/3 300/1/3 299/1/3
f 305/1/3 300/1/3 304/1/3
f 308/8/3 307/8/3 306/8/3
f 309/8/3 307/8/3 308/8/3
f 315/1/3 311/1/3 310/1/3
f 316/1/3 311/1/3 315/1/3
f 317/7/3 314/7/3 313/7/3
f 317/4/3 313/4/3 312/4/3
f 318/7/3 314/7/3 317/7/3
f 321/4/3 317/4/3 312/4/3
f 322/4/3 317/4/3 321/4/3
f 325/1/3 320/1/3 319/1/3
f 326/1/3 320/1/3 325/1/3
f 327/8/3 324/8/3 323/8/3
f 328/8/3 324/8/3 327/8/3
f 331/8/3 330/8/3 329/8/3
f 332/8/3 330/8/3 331/8/3
f 337/3/3 334/3/3 333/3/3
f 338/3/3 334/3/3 337/3/3
f 339/1/3 336/1/3 335/1/3
f 340/1/3 336/1/3 339/1/3
f 343/1/3 342/1/3 341/1/3
f 344/1/3 342/1/3 343/1/3
f 348/4/3 346/4/3 345/4/3
f 348/7/3 347/7/3 346/7/3
f 349/7/3 347/7/3 348/7/3
f 350/4/3 348/4/3 345/4/3
f 351/4/3 348/4/3 350/4/3
f 354/1/3 353/1/3 352/1/3
f 355/1/3 353/1/3 354/1/3
f 356/4/4 357/4/4 359/4/4
f 357/7/4 358/7/4 359/7/4
f 359/7/4 358/7/4 360/7/4
f 356/4/4 359/4/4 361/4/4
f 361/4/4 359/4/4 362/4/4
f 363/1/4 364/1/4 365/1/4
f 365/1/4 364/1/4 366/1/4
f 367/3/4 368/3/4 369/3/4
f 369/3/4 368/3/4 370/3/4
f 371/8/4 372/8/4 373/8/4
f 373/8/4 372/8/4 374/8/4
f 375/8/4 376/8/4 377/8/4
f 377/8/4 376/8/4 378/8/4
f 379/1/4 380/1/4 384/1/4
f 384/1/4 380/1/4 385/1/4
f 382/7/4 383/7/4 386/7/4
f 381/4/4 382/4/4 386/4/4
f 386/7/4 383/7/4 387/7/4
f 381/4/4 386/4/4 390/4/4
f 390/4/4 386/4/4 391/4/4
f 388/1/4 389/1/4 394/1/4
f 394/1/4 389/1/4 395/1/4
f 392/8/4 393/8/4 396/8/4
f 396/8/4 393/8/4 397/8/4
f 398/1/4 399/1/4 403/1/4
f 403/1/4 399/1/4 404/1/4
f 400/8/4 401/8/4 406/8/4
f 406/8/4 401/8/4 407/8/4
f 402/1/4 403/1/4 409/1/4
f 409/1/4 403/1/4 410/1/4
f 407/8/4 408/8/4 411/8/4
f 411/8/4 408/8/4 412/8/4
f 412/8/4 408/8/4 413/8/4
f 413/8/4 408/8/4 414/8/4
f 414/1/4 415/1/4 419/1/4
f 419/1/4 415/1/4 420/1/4
f 417/8/4 418/8/4 423/8/4
f 416/8/4 417/8/4 423/8/4
f 418/8/4 419/8/4 423/8/4
f 423/8/4 419/8/4 424/8/4
f 424/8/4 419/8/4 425/8/4
f 420/1/4 421/1/4 426/1/4
f 426/1/4 421/1/4 427/1/4
f 422/8/4 423/8/4 429/8/4
f 423/8/4 424/8/4 429/8/4
f 429/8/4 424/8/4 430/8/4
f 426/7/4 427/7/4 431/7/4
f 427/7/4 428/7/4 431/7/4
f 431/7/4 428/7/4 432/7/4
f 404/1/4 405/1/4 433/1/4
f 433/1/4 405/1/4 434/1/4
f 432/1/4 433/1/4 435/1/4
f 435/1/4 433/1/4 436/1/4
f 437/1/4 438/1/4 442/1/4
f 439/8/4 440/8/4 443/8/4
f 439/8/4 443/8/4 447/8/4
f 443/8/4 444/8/4 447/8/4
f 447/8/4 444/8/4 448/8/4
f 445/8/4 446/8/4 449/8/4
f 449/8/4 446/8/4 450/8/4
f 441/1/4 442/1/4 451/1/4
f 442/1/4 438/1/4 452/1/4
f 451/1/4 442/1/4 452/1/4
f 439/8/4 447/8/4 453/8/4
f 453/8/4 447/8/4 454/8/4
f 452/1/4 438/1/4 455/1/4
f 455/1/4 438/1/4 456/1/4
f 456/1/4 438/1/4 457/1/4
f 457/1/4 438/1/4 458/1/4
f 459/7/4 460/7/4 462/7/4
f 460/8/4 461/8/4 463/8/4
f 462/7/4 460/7/4 463/7/4
f 463/8/4 461/8/4 464/8/4
f 467/4/5 466/4/5 465/4/5
f 468/4/5 466/4/5 467/4/5
f 471/4/5 470/4/5 469/4/5
f 472/4/5 470/4/5 471/4/5
f 476/8/5 474/8/5 473/8/5
f 477/8/5 474/8/5 476/8/5
f 479/8/5 476/8/5 475/8/5
f 479/8/5 478/8/5 477/8/5
f 479/8/5 477/8/5 476/8/5
f 480/8/5 478/8/5 479/8/5
f 481/8/5 479/8/5 475/8/5
f 482/8/5 478/8/5 480/8/5
f 483/8/5 481/8/5 475/8/5
f 483/8/5 482/8/5 481/8/5
f 484/8/5 478/8/5 482/8/5
f 484/8/5 482/8/5 483/8/5
f 485/8/5 483/8/5 475/8/5
f 486/8/5 478/8/5 484/8/5
f 487/8/5 485/8/5 475/8/5
f 487/8/5 486/8/5 485/8/5
f 488/8/5 486/8/5 487/8/5
f 489/8/5 478/8/5 486/8/5
f 489/8/5 486/8/5 488/8/5
f 490/8/5 478/8/5 489/8/5
f 491/8/5 489/8/5 488/8/5
f 492/8/5 489/8/5 491/8/5
f 495/7/5 494/7/5 493/7/5
f 496/7/5 494/7/5 495/7/5
f 499/7/5 498/7/5 497/7/5
f 500/7/5 498/7/5 499/7/5
f 503/1/5 502/1/5 501/1/5
f 504/1/5 502/1/5 503/1/5
f 507/1/5 503/1/5 501/1/5
f 508/1/5 503/1/5 507/1/5
f 509/1/5 505/1/5 504/1/5
f 510/7/5 506/7/5 505/7/5
f 510/1/5 505/1/5 509/1/5
f 511/7/5 506/7/5 510/7/5
f 512/7/5 506/7/5 511/7/5
f 513/1/5 507/1/5 501/1/5
f 516/7/5 506/7/5 512/7/5
f 517/1/5 514/1/5 513/1/5
f 517/1/5 513/1/5 501/1/5
f 518/1/5 514/1/5 517/1/5
f 519/1/5 514/1/5 518/1/5
f 520/1/5 516/1/5 515/1/5
f 521/7/5 506/7/5 516/7/5
f 521/1/5 516/1/5 520/1/5
f 522/7/5 506/7/5 521/7/5
f 523/1/5 519/1/5 518/1/5
f 523/1/5 520/1/5 519/1/5
f 524/1/5 520/1/5 523/1/5
f 529/1/5 526/1/5 525/1/5
f 530/1/5 526/1/5 529/1/5
f 531/1/5 528/1/5 527/1/5
f 532/1/5 528/1/5 531/1/5
f 536/1/5 533/1/5 532/1/5
f 537/1/5 533/1/5 536/1/5
f 538/1/5 535/1/5 534/1/5
f 539/1/5 535/1/5 538/1/5
f 542/3/5 541/3/5 540/3/5
f 543/3/5 541/3/5 542/3/5
f 546/1/5 545/1/5 544/1/5
f 547/1/5 545/1/5 546/1/5
f 549/1/5 548/1/5 547/1/5
f 550/1/5 548/1/5 549/1/5
f 551/1/5 548/1/5 550/1/5
f 552/1/5 548/1/5 551/1/5
f 555/1/5 554/1/5 553/1/5
f 556/1/5 554/1/5 555/1/5
f 558/1/5 554/1/5 556/1/5
f 559/1/5 554/1/5 558/1/5
f 560/1/5 558/1/5 557/1/5
f 561/1/5 558/1/5 560/1/5
f 564/1/5 563/1/5 562/1/5
f 565/1/5 563/1/5 564/1/5
f 568/1/5 567/1/5 566/1/5
f 569/1/5 567/1/5 568/1/5
f 572/1/5 571/1/5 570/1/5
f 573/1/5 571/1/5 572/1/5
f 574/4/6 575/4/6 576/4/6
f 576/4/6 575/4/6 577/4/6
f 578/4/6 579/4/6 580/4/6
f 580/4/6 579/4/6 581/4/6
f 582/8/6 583/8/6 587/8/6
f 587/8/6 583/8/6 588/8/6
f 584/8/6 585/8/6 589/8/6
f 589/8/6 585/8/6 590/8/6
f 586/8/6 587/8/6 591/8/6
f 591/8/6 587/8/6 592/8/6
f 593/8/6 594/8/6 595/8/6
f 595/8/6 594/8/6 596/8/6
f 596/8/6 597/8/6 600/8/6
f 600/8/6 597/8/6 601/8/6
f 598/8/6 599/8/6 602/8/6
f 602/8/6 599/8/6 603/8/6
f 604/8/6 605/8/6 608/8/6
f 608/8/6 605/8/6 609/8/6
f 606/8/6 607/8/6 610/8/6
f 610/8/6 607/8/6 611/8/6
f 612/8/6 613/8/6 614/8/6
f 614/8/6 613/8/6 615/8/6
f 616/8/6 617/8/6 618/8/6
f 618/8/6 617/8/6 619/8/6
f 620/8/6 621/8/6 622/8/6
f 622/8/6 621/8/6 623/8/6
f 624/8/6 625/8/6 626/8/6
f 626/8/6 625/8/6 627/8/6
f 628/8/6 629/8/6 630/8/6
f 630/8/6 629/8/6 631/8/6
f 632/8/6 633/8/6 634/8/6
f 634/8/6 633/8/6 635/8/6
f 636/8/6 637/8/6 639/8/6
f 639/8/6 637/8/6 640/8/6
f 638/8/6 639/8/6 642/8/6
f 642/8/6 639/8/6 643/8/6
f 640/8/6 641/8/6 644/8/6
f 644/8/6 641/8/6 645/8/6
f 646/8/6 647/8/6 650/8/6
f 650/8/6 647/8/6 651/8/6
f 648/8/6 649/8/6 652/8/6
f 652/8/6 649/8/6 653/8/6
f 651/8/6 652/8/6 654/8/6
f 654/8/6 652/8/6 655/8/6
f 656/3/6 657/3/6 658/3/6
f 658/3/6 657/3/6 659/3/6
f 660/1/6 661/1/6 662/1/6
f 662/1/6 661/1/6 663/1/6
f 664/1/6 665/1/6 667/1/6
f 667/1/6 665/1/6 668/1/6
f 666/1/6 667/1/6 670/1/6
f 670/1/6 667/1/6 671/1/6
f 668/1/6 669/1/6 672/1/6
f 672/1/6 669/1/6 673/1/6
f 671/1/6 672/1/6 674/1/6
f 674/1/6 672/1/6 675/1/6
f 676/1/6 677/1/6 678/1/6
f 678/1/6 677/1/6 679/1/6
